{
  "accessors": [
    {
      "bufferView": 0,
      "componentType": 5125,
      "count": 18612,
      "type": "SCALAR"
    },
    {
      "bufferView": 1,
      "componentType": 5126,
      "count": 4259,
      "max": [
        0.531755924224854,
        0.917768597602844,
        0.561658203601837
      ],
      "min": [
        -0.531755864620209,
        -0.978668928146362,
        -0.612088024616241
      ],
      "type": "VEC3"
    },
    {
      "bufferView": 2,
      "componentType": 5126,
      "count": 4259,
      "type": "VEC3"
    },
    {
      "bufferView": 3,
      "componentType": 5126,
      "count": 4259,
      "type": "VEC2"
    }
  ],
  "asset": {
    "generator": "Adobe Substance 3D Painter 7.4.2",
    "version": "2.0"
  },
  "bufferViews": [
    {
      "buffer": 0,
      "byteLength": 74448,
      "target": 34963
    },
    {
      "buffer": 0,
      "byteLength": 51108,
      "byteOffset": 74448,
      "target": 34962
    },
    {
      "buffer": 0,
      "byteLength": 51108,
      "byteOffset": 125556,
      "target": 34962
    },
    {
      "buffer": 0,
      "byteLength": 34072,
      "byteOffset": 176664,
      "target": 34962
    }
  ],
  "buffers": [
    {
      "byteLength": 210736,
      "uri": "oneMoc.bin"
    }
  ],
  "images": [
    {
      "uri": "lambert2_baseColor.png"
    },
    {
      "uri": "lambert2_occlusionRoughnessMetallic.png"
    },
    {
      "uri": "lambert2_normal.png"
    }
  ],
  "materials": [
    {
      "alphaMode": "OPAQUE",
      "name": "lambert2",
      "normalTexture": {
        "index": 2
      },
      "occlusionTexture": {
        "index": 1
      },
      "pbrMetallicRoughness": {
        "baseColorTexture": {
          "index": 0
        },
        "metallicRoughnessTexture": {
          "index": 1
        }
      }
    }
  ],
  "meshes": [
    {
      "name": "pCube1",
      "primitives": [
        {
          "attributes": {
            "NORMAL": 2,
            "POSITION": 1,
            "TEXCOORD_0": 3
          },
          "indices": 0,
          "material": 0,
          "mode": 4
        }
      ]
    }
  ],
  "nodes": [
    {
      "children": [
        1
      ],
      "name": "RootNode"
    },
    {
      "children": [
        2
      ],
      "name": "pCube1",
      "scale": [
        0.629513442516327,
        0.307832062244415,
        0.999037802219391
      ],
      "translation": [
        0.360292494297028,
        0.309210568666458,
        0.0
      ]
    },
    {
      "mesh": 0,
      "name": "pCube1"
    }
  ],
  "samplers": [
    {
      "magFilter": 9729,
      "minFilter": 9985,
      "wrapS": 10497,
      "wrapT": 10497
    }
  ],
  "scene": 0,
  "scenes": [
    {
      "name": "Scene",
      "nodes": [
        0
      ]
    }
  ],
  "textures": [
    {
      "sampler": 0,
      "source": 0
    },
    {
      "sampler": 0,
      "source": 1
    },
    {
      "sampler": 0,
      "source": 2
    }
  ]
}