{
  "accessors": [
    {
      "bufferView": 0,
      "componentType": 5125,
      "count": 37224,
      "type": "SCALAR"
    },
    {
      "bufferView": 1,
      "componentType": 5126,
      "count": 8523,
      "max": [
        0.560702264308929,
        0.975466191768646,
        0.579890012741089
      ],
      "min": [
        -0.560702264308929,
        -1.03788888454437,
        -0.630321145057678
      ],
      "type": "VEC3"
    },
    {
      "bufferView": 2,
      "componentType": 5126,
      "count": 8523,
      "type": "VEC3"
    },
    {
      "bufferView": 3,
      "componentType": 5126,
      "count": 8523,
      "type": "VEC2"
    }
  ],
  "asset": {
    "generator": "Adobe Substance 3D Painter 7.4.2",
    "version": "2.0"
  },
  "bufferViews": [
    {
      "buffer": 0,
      "byteLength": 148896,
      "target": 34963
    },
    {
      "buffer": 0,
      "byteLength": 102276,
      "byteOffset": 148896,
      "target": 34962
    },
    {
      "buffer": 0,
      "byteLength": 102276,
      "byteOffset": 251172,
      "target": 34962
    },
    {
      "buffer": 0,
      "byteLength": 68184,
      "byteOffset": 353448,
      "target": 34962
    }
  ],
  "buffers": [
    {
      "byteLength": 421632,
      "uri": "Untitled.bin"
    }
  ],
  "images": [
    {
      "uri": "lambert2_baseColor.png"
    },
    {
      "uri": "lambert2_occlusionRoughnessMetallic.png"
    },
    {
      "uri": "lambert2_normal.png"
    }
  ],
  "materials": [
    {
      "alphaMode": "OPAQUE",
      "name": "lambert2",
      "normalTexture": {
        "index": 2
      },
      "occlusionTexture": {
        "index": 1
      },
      "pbrMetallicRoughness": {
        "baseColorTexture": {
          "index": 0
        },
        "metallicRoughnessTexture": {
          "index": 1
        }
      }
    }
  ],
  "meshes": [
    {
      "name": "pCube1",
      "primitives": [
        {
          "attributes": {
            "NORMAL": 2,
            "POSITION": 1,
            "TEXCOORD_0": 3
          },
          "indices": 0,
          "material": 0,
          "mode": 4
        }
      ]
    }
  ],
  "nodes": [
    {
      "children": [
        1
      ],
      "name": "RootNode"
    },
    {
      "children": [
        2
      ],
      "name": "pCube1",
      "scale": [
        0.629513442516327,
        0.307832062244415,
        0.999037802219391
      ]
    },
    {
      "mesh": 0,
      "name": "pCube1"
    }
  ],
  "samplers": [
    {
      "magFilter": 9729,
      "minFilter": 9985,
      "wrapS": 10497,
      "wrapT": 10497
    }
  ],
  "scene": 0,
  "scenes": [
    {
      "name": "Scene",
      "nodes": [
        0
      ]
    }
  ],
  "textures": [
    {
      "sampler": 0,
      "source": 0
    },
    {
      "sampler": 0,
      "source": 1
    },
    {
      "sampler": 0,
      "source": 2
    }
  ]
}