{
  "accessors": [
    {
      "bufferView": 2,
      "componentType": 5126,
      "count": 4410,
      "max": [
        77.18992614746094,
        102.475341796875,
        2.031582832336426
      ],
      "min": [
        -42.414695739746094,
        -158.88706970214844,
        -78.49418640136719
      ],
      "type": "VEC3"
    },
    {
      "bufferView": 2,
      "byteOffset": 52920,
      "componentType": 5126,
      "count": 4410,
      "max": [
        1.0,
        0.9999421238899231,
        0.9999520182609558
      ],
      "min": [
        -1.0,
        -0.9981356263160706,
        -0.9999855756759644
      ],
      "type": "VEC3"
    },
    {
      "bufferView": 1,
      "componentType": 5126,
      "count": 4410,
      "max": [
        1.0025880336761475,
        0.9986379742622375
      ],
      "min": [
        -0.0014900000533089042,
        -0.0015360000543296337
      ],
      "type": "VEC2"
    },
    {
      "bufferView": 1,
      "byteOffset": 35280,
      "componentType": 5126,
      "count": 4410,
      "max": [
        1.0025880336761475,
        0.9986379742622375
      ],
      "min": [
        -0.0014900000533089042,
        -0.0015360000543296337
      ],
      "type": "VEC2"
    },
    {
      "bufferView": 1,
      "byteOffset": 70560,
      "componentType": 5126,
      "count": 4410,
      "max": [
        1.0025880336761475,
        0.9986379742622375
      ],
      "min": [
        -0.0014900000533089042,
        -0.0015360000543296337
      ],
      "type": "VEC2"
    },
    {
      "bufferView": 1,
      "byteOffset": 105840,
      "componentType": 5126,
      "count": 4410,
      "max": [
        1.0025880336761475,
        0.9986379742622375
      ],
      "min": [
        -0.0014900000533089042,
        -0.0015360000543296337
      ],
      "type": "VEC2"
    },
    {
      "bufferView": 0,
      "componentType": 5125,
      "count": 11712,
      "type": "SCALAR"
    }
  ],
  "asset": {
    "extras": {
      "author": "piwici7944 (https://sketchfab.com/piwici7944)",
      "license": "CC-BY-NC-4.0 (http://creativecommons.org/licenses/by-nc/4.0/)",
      "source": "https://sketchfab.com/3d-models/buches-3dd0c42cec914a31bdb5f7b38eaa0711",
      "title": "Buches"
    },
    "generator": "Sketchfab-12.65.0",
    "version": "2.0"
  },
  "bufferViews": [
    {
      "buffer": 0,
      "byteLength": 46848,
      "name": "floatBufferViews",
      "target": 34963
    },
    {
      "buffer": 0,
      "byteLength": 141120,
      "byteOffset": 46848,
      "byteStride": 8,
      "name": "floatBufferViews",
      "target": 34962
    },
    {
      "buffer": 0,
      "byteLength": 105840,
      "byteOffset": 187968,
      "byteStride": 12,
      "name": "floatBufferViews",
      "target": 34962
    }
  ],
  "buffers": [
    {
      "byteLength": 293808,
      "uri": "scene.bin"
    }
  ],
  "images": [
    {
      "uri": "textures/mat_logpile_01_baseColor.png"
    },
    {
      "uri": "textures/mat_logpile_01_metallicRoughness.png"
    }
  ],
  "materials": [
    {
      "doubleSided": true,
      "name": "mat_logpile_01",
      "pbrMetallicRoughness": {
        "baseColorTexture": {
          "index": 0
        },
        "metallicFactor": 0.0,
        "metallicRoughnessTexture": {
          "index": 1
        }
      }
    }
  ],
  "meshes": [
    {
      "name": "Object_0",
      "primitives": [
        {
          "attributes": {
            "NORMAL": 1,
            "POSITION": 0,
            "TEXCOORD_0": 2,
            "TEXCOORD_1": 3,
            "TEXCOORD_2": 4,
            "TEXCOORD_3": 5
          },
          "indices": 6,
          "material": 0,
          "mode": 4
        }
      ]
    }
  ],
  "nodes": [
    {
      "children": [
        1
      ],
      "matrix": [
        1.0,
        0.0,
        0.0,
        0.0,
        0.0,
        2.220446049250313e-16,
        -1.0,
        0.0,
        0.0,
        1.0,
        2.220446049250313e-16,
        0.0,
        0.0,
        0.0,
        0.0,
        1.0
      ],
      "name": "Sketchfab_model"
    },
    {
      "children": [
        2
      ],
      "name": "root"
    },
    {
      "children": [
        3
      ],
      "matrix": [
        1.0,
        0.0,
        0.0,
        0.0,
        0.0,
        2.220446049250313e-16,
        1.0,
        0.0,
        0.0,
        -1.0,
        2.220446049250313e-16,
        0.0,
        0.0,
        0.0,
        0.0,
        1.0
      ],
      "name": "GLTF_SceneRootNode"
    },
    {
      "children": [
        4
      ],
      "matrix": [
        0.04286787209101721,
        -2.1409768875071086e-09,
        0.025736068937679043,
        0.0,
        -0.025736068937679133,
        -3.780212495309437e-09,
        0.04286787209101705,
        0.0,
        1.1017372745791031e-10,
        -0.049999997019767574,
        -4.3430001559895855e-09,
        0.0,
        0.0,
        0.0,
        0.0,
        1.0
      ],
      "name": "pf_logpile_01_2_0"
    },
    {
      "mesh": 0,
      "name": "Object_4"
    }
  ],
  "samplers": [
    {
      "magFilter": 9729,
      "minFilter": 9987,
      "wrapS": 10497,
      "wrapT": 10497
    }
  ],
  "scene": 0,
  "scenes": [
    {
      "name": "Sketchfab_Scene",
      "nodes": [
        0
      ]
    }
  ],
  "textures": [
    {
      "sampler": 0,
      "source": 0
    },
    {
      "sampler": 0,
      "source": 1
    }
  ]
}
