{
  "accessors": [
    {
      "bufferView": 0,
      "componentType": 5125,
      "count": 3243,
      "type": "SCALAR"
    },
    {
      "bufferView": 1,
      "componentType": 5126,
      "count": 2658,
      "max": [
        19.6065654754639,
        8.74953937530518,
        43.2036666870117
      ],
      "min": [
        -24.5255107879639,
        -35.3689460754395,
        -58.3221473693848
      ],
      "type": "VEC3"
    },
    {
      "bufferView": 2,
      "componentType": 5126,
      "count": 2658,
      "type": "VEC3"
    },
    {
      "bufferView": 3,
      "componentType": 5126,
      "count": 2658,
      "type": "VEC2"
    }
  ],
  "asset": {
    "generator": "Adobe Substance 3D Painter 7.4.2",
    "version": "2.0"
  },
  "bufferViews": [
    {
      "buffer": 0,
      "byteLength": 12972,
      "target": 34963
    },
    {
      "buffer": 0,
      "byteLength": 31896,
      "byteOffset": 12972,
      "target": 34962
    },
    {
      "buffer": 0,
      "byteLength": 31896,
      "byteOffset": 44868,
      "target": 34962
    },
    {
      "buffer": 0,
      "byteLength": 21264,
      "byteOffset": 76764,
      "target": 34962
    }
  ],
  "buffers": [
    {
      "byteLength": 98028,
      "uri": "Untitled.bin"
    }
  ],
  "images": [
    {
      "uri": "lambert2_baseColor.png"
    },
    {
      "uri": "lambert2_occlusionRoughnessMetallic.png"
    },
    {
      "uri": "lambert2_normal.png"
    }
  ],
  "materials": [
    {
      "alphaMode": "OPAQUE",
      "name": "lambert2",
      "normalTexture": {
        "index": 2
      },
      "occlusionTexture": {
        "index": 1
      },
      "pbrMetallicRoughness": {
        "baseColorTexture": {
          "index": 0
        },
        "metallicRoughnessTexture": {
          "index": 1
        }
      }
    }
  ],
  "meshes": [
    {
      "name": "Torso",
      "primitives": [
        {
          "attributes": {
            "NORMAL": 2,
            "POSITION": 1,
            "TEXCOORD_0": 3
          },
          "indices": 0,
          "material": 0,
          "mode": 4
        }
      ]
    }
  ],
  "nodes": [
    {
      "children": [
        1
      ],
      "name": "RootNode"
    },
    {
      "children": [
        2
      ],
      "name": "group1"
    },
    {
      "children": [
        3
      ],
      "name": "Torso",
      "rotation": [
        -0.70710676908493,
        0.0,
        0.0,
        0.70710676908493
      ],
      "scale": [
        7.95791149139404,
        8.93026447296143,
        7.95791149139404
      ],
      "translation": [
        -0.566731333732605,
        470.815246582031,
        -70.4856491088867
      ]
    },
    {
      "mesh": 0,
      "name": "Torso"
    }
  ],
  "samplers": [
    {
      "magFilter": 9729,
      "minFilter": 9985,
      "wrapS": 10497,
      "wrapT": 10497
    }
  ],
  "scene": 0,
  "scenes": [
    {
      "name": "Scene",
      "nodes": [
        0
      ]
    }
  ],
  "textures": [
    {
      "sampler": 0,
      "source": 0
    },
    {
      "sampler": 0,
      "source": 1
    },
    {
      "sampler": 0,
      "source": 2
    }
  ]
}