{
  "accessors": [
    {
      "bufferView": 0,
      "componentType": 5125,
      "count": 982740,
      "type": "SCALAR"
    },
    {
      "bufferView": 1,
      "componentType": 5126,
      "count": 167271,
      "max": [
        1.14353716373444,
        1.08223295211792,
        14.2872152328491
      ],
      "min": [
        -1.92473900318146,
        -1.90601801872253,
        11.3270683288574
      ],
      "type": "VEC3"
    },
    {
      "bufferView": 2,
      "componentType": 5126,
      "count": 167271,
      "type": "VEC3"
    },
    {
      "bufferView": 3,
      "componentType": 5126,
      "count": 167271,
      "type": "VEC2"
    }
  ],
  "asset": {
    "generator": "Adobe Substance 3D Painter 7.4.2",
    "version": "2.0"
  },
  "bufferViews": [
    {
      "buffer": 0,
      "byteLength": 3930960,
      "target": 34963
    },
    {
      "buffer": 0,
      "byteLength": 2007252,
      "byteOffset": 3930960,
      "target": 34962
    },
    {
      "buffer": 0,
      "byteLength": 2007252,
      "byteOffset": 5938212,
      "target": 34962
    },
    {
      "buffer": 0,
      "byteLength": 1338168,
      "byteOffset": 7945464,
      "target": 34962
    }
  ],
  "buffers": [
    {
      "byteLength": 9283632,
      "uri": "Pot.bin"
    }
  ],
  "images": [
    {
      "uri": "3D_Model_baseColor.png"
    },
    {
      "uri": "3D_Model_occlusionRoughnessMetallic.png"
    },
    {
      "uri": "3D_Model_normal.png"
    }
  ],
  "materials": [
    {
      "alphaMode": "OPAQUE",
      "name": "3D_Model",
      "normalTexture": {
        "index": 2
      },
      "occlusionTexture": {
        "index": 1
      },
      "pbrMetallicRoughness": {
        "baseColorTexture": {
          "index": 0
        },
        "metallicRoughnessTexture": {
          "index": 1
        }
      }
    }
  ],
  "meshes": [
    {
      "name": "defaultobject",
      "primitives": [
        {
          "attributes": {
            "NORMAL": 2,
            "POSITION": 1,
            "TEXCOORD_0": 3
          },
          "indices": 0,
          "material": 0,
          "mode": 4
        }
      ]
    }
  ],
  "nodes": [
    {
      "children": [
        1
      ],
      "name": "3D%20Model.obj"
    },
    {
      "children": [
        2
      ],
      "name": "defaultobject"
    },
    {
      "mesh": 0,
      "name": "defaultobject"
    }
  ],
  "samplers": [
    {
      "magFilter": 9729,
      "minFilter": 9985,
      "wrapS": 10497,
      "wrapT": 10497
    }
  ],
  "scene": 0,
  "scenes": [
    {
      "name": "Scene",
      "nodes": [
        0
      ]
    }
  ],
  "textures": [
    {
      "sampler": 0,
      "source": 0
    },
    {
      "sampler": 0,
      "source": 1
    },
    {
      "sampler": 0,
      "source": 2
    }
  ]
}