{
  "accessors": [
    {
      "bufferView": 0,
      "componentType": 5125,
      "count": 10560,
      "type": "SCALAR"
    },
    {
      "bufferView": 1,
      "componentType": 5126,
      "count": 2361,
      "max": [
        0.524632334709167,
        0.514301300048828,
        0.869060397148132
      ],
      "min": [
        -0.524631977081299,
        -43.255298614502,
        -1.13659155368805
      ],
      "type": "VEC3"
    },
    {
      "bufferView": 2,
      "componentType": 5126,
      "count": 2361,
      "type": "VEC3"
    },
    {
      "bufferView": 3,
      "componentType": 5126,
      "count": 2361,
      "type": "VEC2"
    },
    {
      "bufferView": 4,
      "componentType": 5125,
      "count": 42240,
      "type": "SCALAR"
    },
    {
      "bufferView": 5,
      "componentType": 5126,
      "count": 8289,
      "max": [
        0.52461713552475,
        0.514251708984375,
        0.857408761978149
      ],
      "min": [
        -0.524617195129395,
        -42.9983062744141,
        -1.10264551639557
      ],
      "type": "VEC3"
    },
    {
      "bufferView": 6,
      "componentType": 5126,
      "count": 8289,
      "type": "VEC3"
    },
    {
      "bufferView": 7,
      "componentType": 5126,
      "count": 8289,
      "type": "VEC2"
    }
  ],
  "asset": {
    "generator": "Adobe Substance 3D Painter 7.4.2",
    "version": "2.0"
  },
  "bufferViews": [
    {
      "buffer": 0,
      "byteLength": 42240,
      "target": 34963
    },
    {
      "buffer": 0,
      "byteLength": 28332,
      "byteOffset": 42240,
      "target": 34962
    },
    {
      "buffer": 0,
      "byteLength": 28332,
      "byteOffset": 70572,
      "target": 34962
    },
    {
      "buffer": 0,
      "byteLength": 18888,
      "byteOffset": 98904,
      "target": 34962
    },
    {
      "buffer": 0,
      "byteLength": 168960,
      "byteOffset": 117792,
      "target": 34963
    },
    {
      "buffer": 0,
      "byteLength": 99468,
      "byteOffset": 286752,
      "target": 34962
    },
    {
      "buffer": 0,
      "byteLength": 99468,
      "byteOffset": 386220,
      "target": 34962
    },
    {
      "buffer": 0,
      "byteLength": 66312,
      "byteOffset": 485688,
      "target": 34962
    }
  ],
  "buffers": [
    {
      "byteLength": 552000,
      "uri": "animalSkin.bin"
    }
  ],
  "images": [
    {
      "uri": "lambert1_baseColor.png"
    },
    {
      "uri": "lambert1_occlusionRoughnessMetallic.png"
    },
    {
      "uri": "lambert1_normal.png"
    }
  ],
  "materials": [
    {
      "alphaMode": "OPAQUE",
      "name": "lambert1",
      "normalTexture": {
        "index": 2
      },
      "occlusionTexture": {
        "index": 1
      },
      "pbrMetallicRoughness": {
        "baseColorTexture": {
          "index": 0
        },
        "metallicRoughnessTexture": {
          "index": 1
        }
      }
    }
  ],
  "meshes": [
    {
      "name": "pasted__pCube5",
      "primitives": [
        {
          "attributes": {
            "NORMAL": 2,
            "POSITION": 1,
            "TEXCOORD_0": 3
          },
          "indices": 0,
          "material": 0,
          "mode": 4
        }
      ]
    },
    {
      "name": "pasted__pCube6",
      "primitives": [
        {
          "attributes": {
            "NORMAL": 6,
            "POSITION": 5,
            "TEXCOORD_0": 7
          },
          "indices": 4,
          "material": 0,
          "mode": 4
        }
      ]
    }
  ],
  "nodes": [
    {
      "children": [
        1
      ],
      "name": "RootNode"
    },
    {
      "children": [
        2,
        4
      ],
      "name": "group"
    },
    {
      "children": [
        3
      ],
      "name": "pasted__pCube5",
      "scale": [
        1.1172331571579,
        0.0703318938612938,
        0.44058495759964
      ],
      "translation": [
        -3.17241191864014,
        5.90858268737793,
        -0.131134048104286
      ]
    },
    {
      "mesh": 0,
      "name": "pasted__pCube5"
    },
    {
      "children": [
        5
      ],
      "name": "pasted__pCube6",
      "scale": [
        3.90412402153015,
        0.0703318938612938,
        0.44058495759964
      ],
      "translation": [
        0.721262633800507,
        5.90858268737793,
        -0.131134048104286
      ]
    },
    {
      "mesh": 1,
      "name": "pasted__pCube6"
    }
  ],
  "samplers": [
    {
      "magFilter": 9729,
      "minFilter": 9985,
      "wrapS": 10497,
      "wrapT": 10497
    }
  ],
  "scene": 0,
  "scenes": [
    {
      "name": "Scene",
      "nodes": [
        0
      ]
    }
  ],
  "textures": [
    {
      "sampler": 0,
      "source": 0
    },
    {
      "sampler": 0,
      "source": 1
    },
    {
      "sampler": 0,
      "source": 2
    }
  ]
}