{
  "accessors": [
    {
      "bufferView": 2,
      "componentType": 5126,
      "count": 1238,
      "max": [
        27.26603126525879,
        29.201120376586914,
        44.02566146850586
      ],
      "min": [
        -27.26603126525879,
        -28.348369598388672,
        -41.23563003540039
      ],
      "type": "VEC3"
    },
    {
      "bufferView": 2,
      "byteOffset": 14856,
      "componentType": 5126,
      "count": 1238,
      "max": [
        1.0,
        1.0,
        1.0
      ],
      "min": [
        -1.0,
        -1.0,
        -1.0
      ],
      "type": "VEC3"
    },
    {
      "bufferView": 3,
      "componentType": 5126,
      "count": 1238,
      "max": [
        0.999996542930603,
        0.9980816841125488,
        1.0,
        1.0
      ],
      "min": [
        -0.7104669213294983,
        -0.9997107982635498,
        -1.0,
        1.0
      ],
      "type": "VEC4"
    },
    {
      "bufferView": 1,
      "componentType": 5126,
      "count": 1238,
      "max": [
        0.9986276626586914,
        0.9980627298355103
      ],
      "min": [
        0.0004774674598593265,
        0.0029856248293071985
      ],
      "type": "VEC2"
    },
    {
      "bufferView": 1,
      "byteOffset": 9904,
      "componentType": 5126,
      "count": 1238,
      "max": [
        0.9986276626586914,
        0.9980627298355103
      ],
      "min": [
        0.0004774674598593265,
        0.0029856248293071985
      ],
      "type": "VEC2"
    },
    {
      "bufferView": 1,
      "byteOffset": 19808,
      "componentType": 5126,
      "count": 1238,
      "max": [
        0.9986276626586914,
        0.9980627298355103
      ],
      "min": [
        0.0004774674598593265,
        0.0029856248293071985
      ],
      "type": "VEC2"
    },
    {
      "bufferView": 1,
      "byteOffset": 29712,
      "componentType": 5126,
      "count": 1238,
      "max": [
        0.9986276626586914,
        0.9980627298355103
      ],
      "min": [
        0.0004774674598593265,
        0.0029856248293071985
      ],
      "type": "VEC2"
    },
    {
      "bufferView": 1,
      "byteOffset": 39616,
      "componentType": 5126,
      "count": 1238,
      "max": [
        0.9986276626586914,
        0.9980627298355103
      ],
      "min": [
        0.0004774674598593265,
        0.0029856248293071985
      ],
      "type": "VEC2"
    },
    {
      "bufferView": 1,
      "byteOffset": 49520,
      "componentType": 5126,
      "count": 1238,
      "max": [
        0.9986276626586914,
        0.9980627298355103
      ],
      "min": [
        0.0004774674598593265,
        0.0029856248293071985
      ],
      "type": "VEC2"
    },
    {
      "bufferView": 1,
      "byteOffset": 59424,
      "componentType": 5126,
      "count": 1238,
      "max": [
        0.9986276626586914,
        0.9980627298355103
      ],
      "min": [
        0.0004774674598593265,
        0.0029856248293071985
      ],
      "type": "VEC2"
    },
    {
      "bufferView": 1,
      "byteOffset": 69328,
      "componentType": 5126,
      "count": 1238,
      "max": [
        0.9986276626586914,
        0.9980627298355103
      ],
      "min": [
        0.0004774674598593265,
        0.0029856248293071985
      ],
      "type": "VEC2"
    },
    {
      "bufferView": 1,
      "byteOffset": 79232,
      "componentType": 5126,
      "count": 1238,
      "max": [
        0.9986276626586914,
        0.9980627298355103
      ],
      "min": [
        0.0004774674598593265,
        0.0029856248293071985
      ],
      "type": "VEC2"
    },
    {
      "bufferView": 1,
      "byteOffset": 89136,
      "componentType": 5126,
      "count": 1238,
      "max": [
        0.9986276626586914,
        0.9980627298355103
      ],
      "min": [
        0.0004774674598593265,
        0.0029856248293071985
      ],
      "type": "VEC2"
    },
    {
      "bufferView": 0,
      "componentType": 5125,
      "count": 4314,
      "type": "SCALAR"
    }
  ],
  "asset": {
    "extras": {
      "author": "Thunder (https://sketchfab.com/thunderpwn)",
      "license": "CC-BY-SA-4.0 (http://creativecommons.org/licenses/by-sa/4.0/)",
      "source": "https://sketchfab.com/3d-models/litter-can-42552e4ab8c241319e9ec91dbb0d6de3",
      "title": "Litter Can"
    },
    "generator": "Sketchfab-12.66.0",
    "version": "2.0"
  },
  "bufferViews": [
    {
      "buffer": 0,
      "byteLength": 17256,
      "name": "floatBufferViews",
      "target": 34963
    },
    {
      "buffer": 0,
      "byteLength": 99040,
      "byteOffset": 17256,
      "byteStride": 8,
      "name": "floatBufferViews",
      "target": 34962
    },
    {
      "buffer": 0,
      "byteLength": 29712,
      "byteOffset": 116296,
      "byteStride": 12,
      "name": "floatBufferViews",
      "target": 34962
    },
    {
      "buffer": 0,
      "byteLength": 19808,
      "byteOffset": 146008,
      "byteStride": 16,
      "name": "floatBufferViews",
      "target": 34962
    }
  ],
  "buffers": [
    {
      "byteLength": 165816,
      "uri": "scene.bin"
    }
  ],
  "images": [
    {
      "uri": "textures/DefaultMaterial_baseColor.png"
    },
    {
      "uri": "textures/DefaultMaterial_metallicRoughness.png"
    },
    {
      "uri": "textures/DefaultMaterial_normal.png"
    }
  ],
  "materials": [
    {
      "doubleSided": true,
      "name": "DefaultMaterial",
      "normalTexture": {
        "index": 2
      },
      "pbrMetallicRoughness": {
        "baseColorTexture": {
          "index": 0
        },
        "metallicRoughnessTexture": {
          "index": 1
        }
      }
    }
  ],
  "meshes": [
    {
      "name": "Cylinder_DefaultMaterial_0",
      "primitives": [
        {
          "attributes": {
            "NORMAL": 1,
            "POSITION": 0,
            "TANGENT": 2,
            "TEXCOORD_0": 3,
            "TEXCOORD_1": 4,
            "TEXCOORD_2": 5,
            "TEXCOORD_3": 6,
            "TEXCOORD_4": 7,
            "TEXCOORD_5": 8,
            "TEXCOORD_6": 9,
            "TEXCOORD_7": 10,
            "TEXCOORD_8": 11,
            "TEXCOORD_9": 12
          },
          "indices": 13,
          "material": 0,
          "mode": 4
        }
      ]
    }
  ],
  "nodes": [
    {
      "children": [
        1
      ],
      "matrix": [
        1.0,
        0.0,
        0.0,
        0.0,
        0.0,
        2.220446049250313e-16,
        -1.0,
        0.0,
        0.0,
        1.0,
        2.220446049250313e-16,
        0.0,
        0.0,
        0.0,
        0.0,
        1.0
      ],
      "name": "Sketchfab_model"
    },
    {
      "children": [
        2
      ],
      "matrix": [
        1.0,
        0.0,
        0.0,
        0.0,
        0.0,
        0.0,
        1.0,
        0.0,
        0.0,
        -1.0,
        0.0,
        0.0,
        0.0,
        0.0,
        0.0,
        1.0
      ],
      "name": "Perrybox.fbx"
    },
    {
      "children": [
        3
      ],
      "name": "RootNode"
    },
    {
      "children": [
        4
      ],
      "matrix": [
        0.23178966343402863,
        0.0,
        0.0,
        0.0,
        0.0,
        -3.0864660552317326e-08,
        -0.23178966343402657,
        0.0,
        0.0,
        0.23178966343402657,
        -3.0864660552317326e-08,
        0.0,
        0.0,
        0.0,
        0.0,
        1.0
      ],
      "name": "Cylinder"
    },
    {
      "mesh": 0,
      "name": "Cylinder_DefaultMaterial_0"
    }
  ],
  "samplers": [
    {
      "magFilter": 9729,
      "minFilter": 9987,
      "wrapS": 10497,
      "wrapT": 10497
    }
  ],
  "scene": 0,
  "scenes": [
    {
      "name": "Sketchfab_Scene",
      "nodes": [
        0
      ]
    }
  ],
  "textures": [
    {
      "sampler": 0,
      "source": 0
    },
    {
      "sampler": 0,
      "source": 1
    },
    {
      "sampler": 0,
      "source": 2
    }
  ]
}
