{
  "accessors": [
    {
      "bufferView": 0,
      "componentType": 5125,
      "count": 3261,
      "type": "SCALAR"
    },
    {
      "bufferView": 1,
      "componentType": 5126,
      "count": 2691,
      "max": [
        19.6065673828125,
        8.74954223632812,
        43.203670501709
      ],
      "min": [
        -19.8902759552002,
        -18.1983413696289,
        -71.281867980957
      ],
      "type": "VEC3"
    },
    {
      "bufferView": 2,
      "componentType": 5126,
      "count": 2691,
      "type": "VEC3"
    },
    {
      "bufferView": 3,
      "componentType": 5126,
      "count": 2691,
      "type": "VEC2"
    }
  ],
  "asset": {
    "generator": "Adobe Substance 3D Painter 7.4.2",
    "version": "2.0"
  },
  "bufferViews": [
    {
      "buffer": 0,
      "byteLength": 13044,
      "target": 34963
    },
    {
      "buffer": 0,
      "byteLength": 32292,
      "byteOffset": 13044,
      "target": 34962
    },
    {
      "buffer": 0,
      "byteLength": 32292,
      "byteOffset": 45336,
      "target": 34962
    },
    {
      "buffer": 0,
      "byteLength": 21528,
      "byteOffset": 77628,
      "target": 34962
    }
  ],
  "buffers": [
    {
      "byteLength": 99156,
      "uri": "Untitled.bin"
    }
  ],
  "images": [
    {
      "uri": "lambert2_baseColor.png"
    },
    {
      "uri": "lambert2_occlusionRoughnessMetallic.png"
    },
    {
      "uri": "lambert2_normal.png"
    }
  ],
  "materials": [
    {
      "alphaMode": "OPAQUE",
      "name": "lambert2",
      "normalTexture": {
        "index": 2
      },
      "occlusionTexture": {
        "index": 1
      },
      "pbrMetallicRoughness": {
        "baseColorTexture": {
          "index": 0
        },
        "metallicRoughnessTexture": {
          "index": 1
        }
      }
    }
  ],
  "meshes": [
    {
      "name": "Torso",
      "primitives": [
        {
          "attributes": {
            "NORMAL": 2,
            "POSITION": 1,
            "TEXCOORD_0": 3
          },
          "indices": 0,
          "material": 0,
          "mode": 4
        }
      ]
    }
  ],
  "nodes": [
    {
      "children": [
        1
      ],
      "name": "RootNode"
    },
    {
      "children": [
        2
      ],
      "name": "group1"
    },
    {
      "children": [
        3
      ],
      "name": "Torso",
      "rotation": [
        -0.70710676908493,
        0.0,
        0.0,
        0.70710676908493
      ],
      "scale": [
        7.95791149139404,
        8.93026447296143,
        7.95791149139404
      ],
      "translation": [
        -0.566731333732605,
        470.815246582031,
        -70.4856491088867
      ]
    },
    {
      "mesh": 0,
      "name": "Torso"
    }
  ],
  "samplers": [
    {
      "magFilter": 9729,
      "minFilter": 9985,
      "wrapS": 10497,
      "wrapT": 10497
    }
  ],
  "scene": 0,
  "scenes": [
    {
      "name": "Scene",
      "nodes": [
        0
      ]
    }
  ],
  "textures": [
    {
      "sampler": 0,
      "source": 0
    },
    {
      "sampler": 0,
      "source": 1
    },
    {
      "sampler": 0,
      "source": 2
    }
  ]
}