{
  "accessors": [
    {
      "bufferView": 2,
      "componentType": 5126,
      "count": 515,
      "max": [
        79.06524658203125,
        129.36512756347656,
        252.9114990234375
      ],
      "min": [
        -397.7484130859375,
        -24.465435028076172,
        -241.40728759765625
      ],
      "type": "VEC3"
    },
    {
      "bufferView": 2,
      "byteOffset": 6180,
      "componentType": 5126,
      "count": 515,
      "max": [
        0.9939566254615784,
        0.999908983707428,
        0.993691086769104
      ],
      "min": [
        -0.9937472343444824,
        -0.9995245933532715,
        -0.9909939169883728
      ],
      "type": "VEC3"
    },
    {
      "bufferView": 3,
      "componentType": 5126,
      "count": 515,
      "max": [
        0.9994085431098938,
        0.9997847676277161,
        0.9999896883964539,
        1.0
      ],
      "min": [
        -0.9996020793914795,
        -0.9992362856864929,
        -0.999975323677063,
        -1.0
      ],
      "type": "VEC4"
    },
    {
      "bufferView": 1,
      "componentType": 5126,
      "count": 515,
      "max": [
        0.9950000047683716,
        0.9413928389549255
      ],
      "min": [
        0.004999999888241291,
        0.004999999888241291
      ],
      "type": "VEC2"
    },
    {
      "bufferView": 1,
      "byteOffset": 4120,
      "componentType": 5126,
      "count": 515,
      "max": [
        0.9950000047683716,
        0.9413928389549255
      ],
      "min": [
        0.004999999888241291,
        0.004999999888241291
      ],
      "type": "VEC2"
    },
    {
      "bufferView": 1,
      "byteOffset": 8240,
      "componentType": 5126,
      "count": 515,
      "max": [
        0.9950000047683716,
        0.9413928389549255
      ],
      "min": [
        0.004999999888241291,
        0.004999999888241291
      ],
      "type": "VEC2"
    },
    {
      "bufferView": 1,
      "byteOffset": 12360,
      "componentType": 5126,
      "count": 515,
      "max": [
        0.9950000047683716,
        0.9413928389549255
      ],
      "min": [
        0.004999999888241291,
        0.004999999888241291
      ],
      "type": "VEC2"
    },
    {
      "bufferView": 1,
      "byteOffset": 16480,
      "componentType": 5126,
      "count": 515,
      "max": [
        0.9950000047683716,
        0.9413928389549255
      ],
      "min": [
        0.004999999888241291,
        0.004999999888241291
      ],
      "type": "VEC2"
    },
    {
      "bufferView": 1,
      "byteOffset": 20600,
      "componentType": 5126,
      "count": 515,
      "max": [
        0.9950000047683716,
        0.9413928389549255
      ],
      "min": [
        0.004999999888241291,
        0.004999999888241291
      ],
      "type": "VEC2"
    },
    {
      "bufferView": 1,
      "byteOffset": 24720,
      "componentType": 5126,
      "count": 515,
      "max": [
        0.9950000047683716,
        0.9413928389549255
      ],
      "min": [
        0.004999999888241291,
        0.004999999888241291
      ],
      "type": "VEC2"
    },
    {
      "bufferView": 1,
      "byteOffset": 28840,
      "componentType": 5126,
      "count": 515,
      "max": [
        0.9950000047683716,
        0.9413928389549255
      ],
      "min": [
        0.004999999888241291,
        0.004999999888241291
      ],
      "type": "VEC2"
    },
    {
      "bufferView": 1,
      "byteOffset": 32960,
      "componentType": 5126,
      "count": 515,
      "max": [
        0.9950000047683716,
        0.9413928389549255
      ],
      "min": [
        0.004999999888241291,
        0.004999999888241291
      ],
      "type": "VEC2"
    },
    {
      "bufferView": 1,
      "byteOffset": 37080,
      "componentType": 5126,
      "count": 515,
      "max": [
        0.9950000047683716,
        0.9413928389549255
      ],
      "min": [
        0.004999999888241291,
        0.004999999888241291
      ],
      "type": "VEC2"
    },
    {
      "bufferView": 0,
      "componentType": 5125,
      "count": 1698,
      "type": "SCALAR"
    }
  ],
  "asset": {
    "extras": {
      "author": "scrampunk (https://sketchfab.com/scrampunk)",
      "license": "CC-BY-4.0 (http://creativecommons.org/licenses/by/4.0/)",
      "source": "https://sketchfab.com/3d-models/extinguished-campfire-free-download-b2108ef43be241e9b8ea716b47873bf5",
      "title": "Extinguished Campfire [Free Download]"
    },
    "generator": "Sketchfab-12.68.0",
    "version": "2.0"
  },
  "bufferViews": [
    {
      "buffer": 0,
      "byteLength": 6792,
      "name": "floatBufferViews",
      "target": 34963
    },
    {
      "buffer": 0,
      "byteLength": 41200,
      "byteOffset": 6792,
      "byteStride": 8,
      "name": "floatBufferViews",
      "target": 34962
    },
    {
      "buffer": 0,
      "byteLength": 12360,
      "byteOffset": 47992,
      "byteStride": 12,
      "name": "floatBufferViews",
      "target": 34962
    },
    {
      "buffer": 0,
      "byteLength": 8240,
      "byteOffset": 60352,
      "byteStride": 16,
      "name": "floatBufferViews",
      "target": 34962
    }
  ],
  "buffers": [
    {
      "byteLength": 68592,
      "uri": "scene.bin"
    }
  ],
  "images": [
    {
      "uri": "textures/Sphere.001__0_baseColor.jpeg"
    },
    {
      "uri": "textures/Sphere.001__0_metallicRoughness.png"
    },
    {
      "uri": "textures/Sphere.001__0_normal.png"
    }
  ],
  "materials": [
    {
      "doubleSided": true,
      "name": "Sphere.001__0",
      "normalTexture": {
        "index": 2,
        "scale": 0.25609756097560976
      },
      "occlusionTexture": {
        "index": 1
      },
      "pbrMetallicRoughness": {
        "baseColorTexture": {
          "index": 0
        },
        "metallicRoughnessTexture": {
          "index": 1
        }
      }
    }
  ],
  "meshes": [
    {
      "name": "Sphere.001__0",
      "primitives": [
        {
          "attributes": {
            "NORMAL": 1,
            "POSITION": 0,
            "TANGENT": 2,
            "TEXCOORD_0": 3,
            "TEXCOORD_1": 4,
            "TEXCOORD_2": 5,
            "TEXCOORD_3": 6,
            "TEXCOORD_4": 7,
            "TEXCOORD_5": 8,
            "TEXCOORD_6": 9,
            "TEXCOORD_7": 10,
            "TEXCOORD_8": 11,
            "TEXCOORD_9": 12
          },
          "indices": 13,
          "material": 0,
          "mode": 4
        }
      ]
    }
  ],
  "nodes": [
    {
      "children": [
        1
      ],
      "matrix": [
        1.0,
        0.0,
        0.0,
        0.0,
        0.0,
        2.220446049250313e-16,
        -1.0,
        0.0,
        0.0,
        1.0,
        2.220446049250313e-16,
        0.0,
        0.0,
        0.0,
        0.0,
        1.0
      ],
      "name": "Sketchfab_model"
    },
    {
      "children": [
        2
      ],
      "matrix": [
        1.0,
        0.0,
        0.0,
        0.0,
        0.0,
        0.0,
        1.0,
        0.0,
        0.0,
        -1.0,
        0.0,
        0.0,
        0.0,
        0.0,
        0.0,
        1.0
      ],
      "name": "fire01.fbx"
    },
    {
      "children": [
        3
      ],
      "name": "RootNode"
    },
    {
      "children": [
        4
      ],
      "name": "Sphere.001"
    },
    {
      "mesh": 0,
      "name": "Sphere.001__0"
    }
  ],
  "samplers": [
    {
      "magFilter": 9729,
      "minFilter": 9987,
      "wrapS": 10497,
      "wrapT": 10497
    }
  ],
  "scene": 0,
  "scenes": [
    {
      "name": "Sketchfab_Scene",
      "nodes": [
        0
      ]
    }
  ],
  "textures": [
    {
      "sampler": 0,
      "source": 0
    },
    {
      "sampler": 0,
      "source": 1
    },
    {
      "sampler": 0,
      "source": 2
    }
  ]
}
