{
  "accessors": [
    {
      "bufferView": 0,
      "componentType": 5125,
      "count": 3600,
      "type": "SCALAR"
    },
    {
      "bufferView": 1,
      "componentType": 5126,
      "count": 695,
      "max": [
        0.5,
        -1.62192821502686,
        0.441859722137451
      ],
      "min": [
        -0.5,
        -17.7138214111328,
        -0.5
      ],
      "type": "VEC3"
    },
    {
      "bufferView": 2,
      "componentType": 5126,
      "count": 695,
      "type": "VEC3"
    },
    {
      "bufferView": 3,
      "componentType": 5126,
      "count": 695,
      "type": "VEC2"
    }
  ],
  "asset": {
    "generator": "Adobe Substance 3D Painter 7.4.2",
    "version": "2.0"
  },
  "bufferViews": [
    {
      "buffer": 0,
      "byteLength": 14400,
      "target": 34963
    },
    {
      "buffer": 0,
      "byteLength": 8340,
      "byteOffset": 14400,
      "target": 34962
    },
    {
      "buffer": 0,
      "byteLength": 8340,
      "byteOffset": 22740,
      "target": 34962
    },
    {
      "buffer": 0,
      "byteLength": 5560,
      "byteOffset": 31080,
      "target": 34962
    }
  ],
  "buffers": [
    {
      "byteLength": 36640,
      "uri": "fallenAnimalSkin.bin"
    }
  ],
  "images": [
    {
      "uri": "lambert1_baseColor.png"
    },
    {
      "uri": "lambert1_occlusionRoughnessMetallic.png"
    },
    {
      "uri": "lambert1_normal.png"
    }
  ],
  "materials": [
    {
      "alphaMode": "OPAQUE",
      "name": "lambert1",
      "normalTexture": {
        "index": 2
      },
      "occlusionTexture": {
        "index": 1
      },
      "pbrMetallicRoughness": {
        "baseColorTexture": {
          "index": 0
        },
        "metallicRoughnessTexture": {
          "index": 1
        }
      }
    }
  ],
  "meshes": [
    {
      "name": "pasted__pCube5",
      "primitives": [
        {
          "attributes": {
            "NORMAL": 2,
            "POSITION": 1,
            "TEXCOORD_0": 3
          },
          "indices": 0,
          "material": 0,
          "mode": 4
        }
      ]
    }
  ],
  "nodes": [
    {
      "children": [
        1
      ],
      "name": "RootNode"
    },
    {
      "children": [
        2
      ],
      "name": "group"
    },
    {
      "children": [
        3
      ],
      "name": "pasted__pCube5",
      "rotation": [
        0.0,
        -0.839635491371155,
        0.0,
        0.543150424957275
      ],
      "scale": [
        2.71776747703552,
        0.0236311238259077,
        4.0448579788208
      ],
      "translation": [
        0.0927926823496819,
        0.785326838493347,
        -0.186002343893051
      ]
    },
    {
      "mesh": 0,
      "name": "pasted__pCube5"
    }
  ],
  "samplers": [
    {
      "magFilter": 9729,
      "minFilter": 9985,
      "wrapS": 10497,
      "wrapT": 10497
    }
  ],
  "scene": 0,
  "scenes": [
    {
      "name": "Scene",
      "nodes": [
        0
      ]
    }
  ],
  "textures": [
    {
      "sampler": 0,
      "source": 0
    },
    {
      "sampler": 0,
      "source": 1
    },
    {
      "sampler": 0,
      "source": 2
    }
  ]
}