{
  "accessors": [
    {
      "bufferView": 0,
      "componentType": 5125,
      "count": 221184,
      "type": "SCALAR"
    },
    {
      "bufferView": 1,
      "componentType": 5126,
      "count": 45312,
      "max": [
        2.17988348007202,
        41.1838455200195,
        3.13635396957397
      ],
      "min": [
        -2.54527759552002,
        36.1921615600586,
        -2.67589640617371
      ],
      "type": "VEC3"
    },
    {
      "bufferView": 2,
      "componentType": 5126,
      "count": 45312,
      "type": "VEC3"
    },
    {
      "bufferView": 3,
      "componentType": 5126,
      "count": 45312,
      "type": "VEC2"
    },
    {
      "bufferView": 4,
      "componentType": 5125,
      "count": 8088,
      "type": "SCALAR"
    },
    {
      "bufferView": 5,
      "componentType": 5126,
      "count": 1594,
      "max": [
        2.08352065086365,
        36.8209457397461,
        1.42746484279633
      ],
      "min": [
        -2.26255369186401,
        0.646738052368164,
        -1.37004315853119
      ],
      "type": "VEC3"
    },
    {
      "bufferView": 6,
      "componentType": 5126,
      "count": 1594,
      "type": "VEC3"
    },
    {
      "bufferView": 7,
      "componentType": 5126,
      "count": 1594,
      "type": "VEC2"
    },
    {
      "bufferView": 8,
      "componentType": 5125,
      "count": 960,
      "type": "SCALAR"
    },
    {
      "bufferView": 9,
      "componentType": 5126,
      "count": 189,
      "max": [
        1.45301079750061,
        36.7641448974609,
        1.17438316345215
      ],
      "min": [
        -0.747820317745209,
        35.7463912963867,
        -0.826413154602051
      ],
      "type": "VEC3"
    },
    {
      "bufferView": 10,
      "componentType": 5126,
      "count": 189,
      "type": "VEC3"
    },
    {
      "bufferView": 11,
      "componentType": 5126,
      "count": 189,
      "type": "VEC2"
    }
  ],
  "asset": {
    "generator": "Adobe Substance 3D Painter 7.4.2",
    "version": "2.0"
  },
  "bufferViews": [
    {
      "buffer": 0,
      "byteLength": 884736,
      "target": 34963
    },
    {
      "buffer": 0,
      "byteLength": 543744,
      "byteOffset": 884736,
      "target": 34962
    },
    {
      "buffer": 0,
      "byteLength": 543744,
      "byteOffset": 1428480,
      "target": 34962
    },
    {
      "buffer": 0,
      "byteLength": 362496,
      "byteOffset": 1972224,
      "target": 34962
    },
    {
      "buffer": 0,
      "byteLength": 32352,
      "byteOffset": 2334720,
      "target": 34963
    },
    {
      "buffer": 0,
      "byteLength": 19128,
      "byteOffset": 2367072,
      "target": 34962
    },
    {
      "buffer": 0,
      "byteLength": 19128,
      "byteOffset": 2386200,
      "target": 34962
    },
    {
      "buffer": 0,
      "byteLength": 12752,
      "byteOffset": 2405328,
      "target": 34962
    },
    {
      "buffer": 0,
      "byteLength": 3840,
      "byteOffset": 2418080,
      "target": 34963
    },
    {
      "buffer": 0,
      "byteLength": 2268,
      "byteOffset": 2421920,
      "target": 34962
    },
    {
      "buffer": 0,
      "byteLength": 2268,
      "byteOffset": 2424188,
      "target": 34962
    },
    {
      "buffer": 0,
      "byteLength": 1512,
      "byteOffset": 2426456,
      "target": 34962
    }
  ],
  "buffers": [
    {
      "byteLength": 2427968,
      "uri": "sweet_grass.bin"
    }
  ],
  "images": [
    {
      "uri": "lambert2_baseColor.png"
    },
    {
      "uri": "lambert2_occlusionRoughnessMetallic.png"
    },
    {
      "uri": "lambert2_normal.png"
    },
    {
      "uri": "lambert3_baseColor.png"
    },
    {
      "uri": "lambert3_occlusionRoughnessMetallic.png"
    },
    {
      "uri": "lambert3_normal.png"
    },
    {
      "uri": "lambert4_baseColor.png"
    },
    {
      "uri": "lambert4_occlusionRoughnessMetallic.png"
    },
    {
      "uri": "lambert4_normal.png"
    }
  ],
  "materials": [
    {
      "alphaMode": "OPAQUE",
      "name": "lambert2",
      "normalTexture": {
        "index": 2
      },
      "occlusionTexture": {
        "index": 1
      },
      "pbrMetallicRoughness": {
        "baseColorTexture": {
          "index": 0
        },
        "metallicRoughnessTexture": {
          "index": 1
        }
      }
    },
    {
      "alphaMode": "OPAQUE",
      "name": "lambert3",
      "normalTexture": {
        "index": 5
      },
      "occlusionTexture": {
        "index": 4
      },
      "pbrMetallicRoughness": {
        "baseColorTexture": {
          "index": 3
        },
        "metallicRoughnessTexture": {
          "index": 4
        }
      }
    },
    {
      "alphaMode": "OPAQUE",
      "name": "lambert4",
      "normalTexture": {
        "index": 8
      },
      "occlusionTexture": {
        "index": 7
      },
      "pbrMetallicRoughness": {
        "baseColorTexture": {
          "index": 6
        },
        "metallicRoughnessTexture": {
          "index": 7
        }
      }
    }
  ],
  "meshes": [
    {
      "name": "group8_nurbsToPoly26",
      "primitives": [
        {
          "attributes": {
            "NORMAL": 2,
            "POSITION": 1,
            "TEXCOORD_0": 3
          },
          "indices": 0,
          "material": 2,
          "mode": 4
        }
      ]
    },
    {
      "name": "nurbsToPoly1",
      "primitives": [
        {
          "attributes": {
            "NORMAL": 6,
            "POSITION": 5,
            "TEXCOORD_0": 7
          },
          "indices": 4,
          "material": 0,
          "mode": 4
        }
      ]
    },
    {
      "name": "pPlane1",
      "primitives": [
        {
          "attributes": {
            "NORMAL": 10,
            "POSITION": 9,
            "TEXCOORD_0": 11
          },
          "indices": 8,
          "material": 1,
          "mode": 4
        }
      ]
    }
  ],
  "nodes": [
    {
      "children": [
        1,
        3,
        5
      ],
      "name": "RootNode"
    },
    {
      "children": [
        2
      ],
      "name": "group8_nurbsToPoly26"
    },
    {
      "mesh": 0,
      "name": "group8_nurbsToPoly26"
    },
    {
      "children": [
        4
      ],
      "name": "nurbsToPoly1"
    },
    {
      "mesh": 1,
      "name": "nurbsToPoly1"
    },
    {
      "children": [
        6
      ],
      "name": "pPlane1"
    },
    {
      "mesh": 2,
      "name": "pPlane1"
    }
  ],
  "samplers": [
    {
      "magFilter": 9729,
      "minFilter": 9985,
      "wrapS": 10497,
      "wrapT": 10497
    }
  ],
  "scene": 0,
  "scenes": [
    {
      "name": "Scene",
      "nodes": [
        0
      ]
    }
  ],
  "textures": [
    {
      "sampler": 0,
      "source": 0
    },
    {
      "sampler": 0,
      "source": 1
    },
    {
      "sampler": 0,
      "source": 2
    },
    {
      "sampler": 0,
      "source": 3
    },
    {
      "sampler": 0,
      "source": 4
    },
    {
      "sampler": 0,
      "source": 5
    },
    {
      "sampler": 0,
      "source": 6
    },
    {
      "sampler": 0,
      "source": 7
    },
    {
      "sampler": 0,
      "source": 8
    }
  ]
}