{
  "accessors": [
    {
      "bufferView": 2,
      "componentType": 5126,
      "count": 65532,
      "max": [
        427.8204650878906,
        147.87893676757813,
        243.10556030273438
      ],
      "min": [
        -403.09100341796875,
        -75.848388671875,
        -301.7029113769531
      ],
      "type": "VEC3"
    },
    {
      "bufferView": 2,
      "byteOffset": 786384,
      "componentType": 5126,
      "count": 65532,
      "max": [
        0.9999622702598572,
        0.999977171421051,
        0.9999756217002869
      ],
      "min": [
        -0.9999419450759888,
        -0.9999862909317017,
        -0.9999984502792358
      ],
      "type": "VEC3"
    },
    {
      "bufferView": 1,
      "componentType": 5126,
      "count": 65532,
      "max": [
        0.9997056126594543,
        0.9997988343238831
      ],
      "min": [
        0.00020795853924937546,
        0.0002981424331665039
      ],
      "type": "VEC2"
    },
    {
      "bufferView": 0,
      "componentType": 5125,
      "count": 195138,
      "type": "SCALAR"
    },
    {
      "bufferView": 2,
      "byteOffset": 1572768,
      "componentType": 5126,
      "count": 65532,
      "max": [
        427.89923095703125,
        149.17147827148438,
        242.02638244628906
      ],
      "min": [
        -504.9115905761719,
        -77.16716766357422,
        -255.16810607910156
      ],
      "type": "VEC3"
    },
    {
      "bufferView": 2,
      "byteOffset": 2359152,
      "componentType": 5126,
      "count": 65532,
      "max": [
        0.9999216794967651,
        0.9999982118606567,
        0.9999631643295288
      ],
      "min": [
        -0.9999070763587952,
        -0.9999846816062927,
        -0.9999613165855408
      ],
      "type": "VEC3"
    },
    {
      "bufferView": 1,
      "byteOffset": 524256,
      "componentType": 5126,
      "count": 65532,
      "max": [
        0.9996805787086487,
        0.9997918009757996
      ],
      "min": [
        0.00019846369104925543,
        0.00029593706130981445
      ],
      "type": "VEC2"
    },
    {
      "bufferView": 0,
      "byteOffset": 780552,
      "componentType": 5125,
      "count": 186255,
      "type": "SCALAR"
    },
    {
      "bufferView": 2,
      "byteOffset": 3145536,
      "componentType": 5126,
      "count": 65532,
      "max": [
        422.6047668457031,
        149.17147827148438,
        243.1016387939453
      ],
      "min": [
        -403.6056213378906,
        -77.16716766357422,
        -241.99790954589844
      ],
      "type": "VEC3"
    },
    {
      "bufferView": 2,
      "byteOffset": 3931920,
      "componentType": 5126,
      "count": 65532,
      "max": [
        0.9998155832290649,
        0.9999773502349854,
        0.9999756217002869
      ],
      "min": [
        -0.9999961853027344,
        -0.9999980926513672,
        -0.9999909400939941
      ],
      "type": "VEC3"
    },
    {
      "bufferView": 1,
      "byteOffset": 1048512,
      "componentType": 5126,
      "count": 65532,
      "max": [
        0.9997895359992981,
        0.9998029470443726
      ],
      "min": [
        0.00019852544937748462,
        0.00029540061950683594
      ],
      "type": "VEC2"
    },
    {
      "bufferView": 0,
      "byteOffset": 1525572,
      "componentType": 5125,
      "count": 172329,
      "type": "SCALAR"
    },
    {
      "bufferView": 2,
      "byteOffset": 4718304,
      "componentType": 5126,
      "count": 65532,
      "max": [
        427.1669006347656,
        224.01402282714844,
        306.4035339355469
      ],
      "min": [
        -472.8411560058594,
        -106.75563049316406,
        -242.07838439941406
      ],
      "type": "VEC3"
    },
    {
      "bufferView": 2,
      "byteOffset": 5504688,
      "componentType": 5126,
      "count": 65532,
      "max": [
        0.9999969601631165,
        0.9999915957450867,
        0.999969482421875
      ],
      "min": [
        -0.9999556541442871,
        -0.9999887347221375,
        -0.9999961256980896
      ],
      "type": "VEC3"
    },
    {
      "bufferView": 1,
      "byteOffset": 1572768,
      "componentType": 5126,
      "count": 65532,
      "max": [
        0.999737024307251,
        0.99980229139328
      ],
      "min": [
        0.00019993566093035042,
        0.00030153989791870117
      ],
      "type": "VEC2"
    },
    {
      "bufferView": 0,
      "byteOffset": 2214888,
      "componentType": 5125,
      "count": 159210,
      "type": "SCALAR"
    },
    {
      "bufferView": 2,
      "byteOffset": 6291072,
      "componentType": 5126,
      "count": 65532,
      "max": [
        427.89923095703125,
        148.40711975097656,
        305.3674011230469
      ],
      "min": [
        -403.6274108886719,
        -74.64043426513672,
        -241.5423583984375
      ],
      "type": "VEC3"
    },
    {
      "bufferView": 2,
      "byteOffset": 7077456,
      "componentType": 5126,
      "count": 65532,
      "max": [
        0.9999963045120239,
        0.9999982118606567,
        0.9999792575836182
      ],
      "min": [
        -0.9999811053276062,
        -0.9999489784240723,
        -0.999951183795929
      ],
      "type": "VEC3"
    },
    {
      "bufferView": 1,
      "byteOffset": 2097024,
      "componentType": 5126,
      "count": 65532,
      "max": [
        0.9997901916503906,
        0.9998028874397278
      ],
      "min": [
        0.00020938216766808182,
        0.00029969215393066406
      ],
      "type": "VEC2"
    },
    {
      "bufferView": 0,
      "byteOffset": 2851728,
      "componentType": 5125,
      "count": 154449,
      "type": "SCALAR"
    },
    {
      "bufferView": 2,
      "byteOffset": 7863840,
      "componentType": 5126,
      "count": 65532,
      "max": [
        425.82794189453125,
        143.17135620117188,
        234.55078125
      ],
      "min": [
        -402.73944091796875,
        -77.0032958984375,
        -239.0204315185547
      ],
      "type": "VEC3"
    },
    {
      "bufferView": 2,
      "byteOffset": 8650224,
      "componentType": 5126,
      "count": 65532,
      "max": [
        0.9999963045120239,
        0.9999879002571106,
        0.9999631643295288
      ],
      "min": [
        -0.9999961853027344,
        -0.9999887347221375,
        -0.9999961256980896
      ],
      "type": "VEC3"
    },
    {
      "bufferView": 1,
      "byteOffset": 2621280,
      "componentType": 5126,
      "count": 65532,
      "max": [
        0.9997822642326355,
        0.9997991919517517
      ],
      "min": [
        0.00019662323757074773,
        0.0003777742385864258
      ],
      "type": "VEC2"
    },
    {
      "bufferView": 0,
      "byteOffset": 3469524,
      "componentType": 5125,
      "count": 146079,
      "type": "SCALAR"
    },
    {
      "bufferView": 2,
      "byteOffset": 9436608,
      "componentType": 5126,
      "count": 65533,
      "max": [
        495.0884094238281,
        149.6991424560547,
        234.9750213623047
      ],
      "min": [
        -385.1183776855469,
        -102.9015121459961,
        -323.89208984375
      ],
      "type": "VEC3"
    },
    {
      "bufferView": 2,
      "byteOffset": 10223004,
      "componentType": 5126,
      "count": 65533,
      "max": [
        0.9999836683273315,
        0.9999650716781616,
        0.9999646544456482
      ],
      "min": [
        -0.9999811053276062,
        -0.9999982714653015,
        -0.9999984502792358
      ],
      "type": "VEC3"
    },
    {
      "bufferView": 1,
      "byteOffset": 3145536,
      "componentType": 5126,
      "count": 65533,
      "max": [
        0.9997552633285522,
        0.9998044371604919
      ],
      "min": [
        0.00019789725774899125,
        0.000359952449798584
      ],
      "type": "VEC2"
    },
    {
      "bufferView": 0,
      "byteOffset": 4053840,
      "componentType": 5125,
      "count": 128064,
      "type": "SCALAR"
    },
    {
      "bufferView": 2,
      "byteOffset": 11009400,
      "componentType": 5126,
      "count": 65532,
      "max": [
        427.8437194824219,
        148.72425842285156,
        240.08956909179688
      ],
      "min": [
        -494.74169921875,
        -137.70301818847656,
        -241.87571716308594
      ],
      "type": "VEC3"
    },
    {
      "bufferView": 2,
      "byteOffset": 11795784,
      "componentType": 5126,
      "count": 65532,
      "max": [
        0.999979555606842,
        0.9999874830245972,
        0.9999756217002869
      ],
      "min": [
        -0.9999459981918335,
        -0.9999862909317017,
        -0.9999855756759644
      ],
      "type": "VEC3"
    },
    {
      "bufferView": 1,
      "byteOffset": 3669800,
      "componentType": 5126,
      "count": 65532,
      "max": [
        0.9997613430023193,
        0.9997984170913696
      ],
      "min": [
        0.00019829465600196272,
        0.00034415721893310547
      ],
      "type": "VEC2"
    },
    {
      "bufferView": 0,
      "byteOffset": 4566096,
      "componentType": 5125,
      "count": 110709,
      "type": "SCALAR"
    },
    {
      "bufferView": 2,
      "byteOffset": 12582168,
      "componentType": 5126,
      "count": 65534,
      "max": [
        495.0884094238281,
        191.8472442626953,
        243.87738037109375
      ],
      "min": [
        -405.4796447753906,
        -138.44720458984375,
        -308.59893798828125
      ],
      "type": "VEC3"
    },
    {
      "bufferView": 2,
      "byteOffset": 13368576,
      "componentType": 5126,
      "count": 65534,
      "max": [
        0.9999969601631165,
        0.9999650716781616,
        0.9999756217002869
      ],
      "min": [
        -0.999991774559021,
        -0.9999862909317017,
        -0.9999955892562866
      ],
      "type": "VEC3"
    },
    {
      "bufferView": 1,
      "byteOffset": 4194056,
      "componentType": 5126,
      "count": 65534,
      "max": [
        0.9997634887695313,
        0.9998034834861755
      ],
      "min": [
        0.00019703753059729934,
        0.00032466650009155273
      ],
      "type": "VEC2"
    },
    {
      "bufferView": 0,
      "byteOffset": 5008932,
      "componentType": 5125,
      "count": 96135,
      "type": "SCALAR"
    },
    {
      "bufferView": 2,
      "byteOffset": 14154984,
      "componentType": 5126,
      "count": 21040,
      "max": [
        425.0049743652344,
        143.91758728027344,
        237.99069213867188
      ],
      "min": [
        -405.4796447753906,
        -77.71661376953125,
        -238.80258178710938
      ],
      "type": "VEC3"
    },
    {
      "bufferView": 2,
      "byteOffset": 14407464,
      "componentType": 5126,
      "count": 21040,
      "max": [
        0.9999836683273315,
        0.9997949600219727,
        0.9997295141220093
      ],
      "min": [
        -0.9998815655708313,
        -0.9999392032623291,
        -0.999951183795929
      ],
      "type": "VEC3"
    },
    {
      "bufferView": 1,
      "byteOffset": 4718328,
      "componentType": 5126,
      "count": 21040,
      "max": [
        0.9996767640113831,
        0.9998045563697815
      ],
      "min": [
        0.00020555505761876702,
        0.000708460807800293
      ],
      "type": "VEC2"
    },
    {
      "bufferView": 0,
      "byteOffset": 5393472,
      "componentType": 5125,
      "count": 25398,
      "type": "SCALAR"
    }
  ],
  "asset": {
    "extras": {
      "author": "ஜCIHIRISஜ (https://sketchfab.com/crazy4creativity)",
      "license": "CC-BY-4.0 (http://creativecommons.org/licenses/by/4.0/)",
      "source": "https://sketchfab.com/3d-models/brown-wicker-basket-570bc55394744fe481863431259da3fe",
      "title": "Brown Wicker Basket"
    },
    "generator": "Sketchfab-12.67.0",
    "version": "2.0"
  },
  "bufferViews": [
    {
      "buffer": 0,
      "byteLength": 5495064,
      "name": "floatBufferViews",
      "target": 34963
    },
    {
      "buffer": 0,
      "byteLength": 4886648,
      "byteOffset": 5495064,
      "byteStride": 8,
      "name": "floatBufferViews",
      "target": 34962
    },
    {
      "buffer": 0,
      "byteLength": 14659944,
      "byteOffset": 10381712,
      "byteStride": 12,
      "name": "floatBufferViews",
      "target": 34962
    }
  ],
  "buffers": [
    {
      "byteLength": 25041656,
      "uri": "scene.bin"
    }
  ],
  "images": [
    {
      "uri": "textures/Material0_baseColor.jpeg"
    }
  ],
  "materials": [
    {
      "doubleSided": true,
      "name": "Material0",
      "pbrMetallicRoughness": {
        "baseColorTexture": {
          "index": 0
        },
        "metallicFactor": 0.0
      }
    }
  ],
  "meshes": [
    {
      "name": "Stereo textured mesh_Material0_0",
      "primitives": [
        {
          "attributes": {
            "NORMAL": 1,
            "POSITION": 0,
            "TEXCOORD_0": 2
          },
          "indices": 3,
          "material": 0,
          "mode": 4
        }
      ]
    },
    {
      "name": "Stereo textured mesh_Material0_0",
      "primitives": [
        {
          "attributes": {
            "NORMAL": 5,
            "POSITION": 4,
            "TEXCOORD_0": 6
          },
          "indices": 7,
          "material": 0,
          "mode": 4
        }
      ]
    },
    {
      "name": "Stereo textured mesh_Material0_0",
      "primitives": [
        {
          "attributes": {
            "NORMAL": 9,
            "POSITION": 8,
            "TEXCOORD_0": 10
          },
          "indices": 11,
          "material": 0,
          "mode": 4
        }
      ]
    },
    {
      "name": "Stereo textured mesh_Material0_0",
      "primitives": [
        {
          "attributes": {
            "NORMAL": 13,
            "POSITION": 12,
            "TEXCOORD_0": 14
          },
          "indices": 15,
          "material": 0,
          "mode": 4
        }
      ]
    },
    {
      "name": "Stereo textured mesh_Material0_0",
      "primitives": [
        {
          "attributes": {
            "NORMAL": 17,
            "POSITION": 16,
            "TEXCOORD_0": 18
          },
          "indices": 19,
          "material": 0,
          "mode": 4
        }
      ]
    },
    {
      "name": "Stereo textured mesh_Material0_0",
      "primitives": [
        {
          "attributes": {
            "NORMAL": 21,
            "POSITION": 20,
            "TEXCOORD_0": 22
          },
          "indices": 23,
          "material": 0,
          "mode": 4
        }
      ]
    },
    {
      "name": "Stereo textured mesh_Material0_0",
      "primitives": [
        {
          "attributes": {
            "NORMAL": 25,
            "POSITION": 24,
            "TEXCOORD_0": 26
          },
          "indices": 27,
          "material": 0,
          "mode": 4
        }
      ]
    },
    {
      "name": "Stereo textured mesh_Material0_0",
      "primitives": [
        {
          "attributes": {
            "NORMAL": 29,
            "POSITION": 28,
            "TEXCOORD_0": 30
          },
          "indices": 31,
          "material": 0,
          "mode": 4
        }
      ]
    },
    {
      "name": "Stereo textured mesh_Material0_0",
      "primitives": [
        {
          "attributes": {
            "NORMAL": 33,
            "POSITION": 32,
            "TEXCOORD_0": 34
          },
          "indices": 35,
          "material": 0,
          "mode": 4
        }
      ]
    },
    {
      "name": "Stereo textured mesh_Material0_0",
      "primitives": [
        {
          "attributes": {
            "NORMAL": 37,
            "POSITION": 36,
            "TEXCOORD_0": 38
          },
          "indices": 39,
          "material": 0,
          "mode": 4
        }
      ]
    }
  ],
  "nodes": [
    {
      "children": [
        1
      ],
      "matrix": [
        0.008518202230334282,
        1.1101424241462694e-16,
        -0.9999637007713318,
        0.0,
        -0.003044914687052369,
        -0.9999953508377075,
        -2.5938139515568892e-05,
        0.0,
        -0.9999591112136841,
        0.0030450252816081064,
        -0.008518163114786148,
        0.0,
        3.7421538829803467,
        -34.0660629272461,
        37.94411849975585,
        1.0
      ],
      "name": "Sketchfab_model"
    },
    {
      "children": [
        2
      ],
      "matrix": [
        1.0,
        0.0,
        0.0,
        0.0,
        0.0,
        -1.0,
        0.0,
        0.0,
        0.0,
        0.0,
        -1.0,
        0.0,
        0.0,
        0.0,
        0.0,
        1.0
      ],
      "name": "sketchfabTemp.obj.fbx"
    },
    {
      "children": [
        3
      ],
      "name": "RootNode"
    },
    {
      "children": [
        4,
        5,
        6,
        7,
        8,
        9,
        10,
        11,
        12,
        13
      ],
      "name": "Stereo textured mesh"
    },
    {
      "mesh": 0,
      "name": "Stereo textured mesh_Material0_0"
    },
    {
      "mesh": 1,
      "name": "Stereo textured mesh_Material0_0"
    },
    {
      "mesh": 2,
      "name": "Stereo textured mesh_Material0_0"
    },
    {
      "mesh": 3,
      "name": "Stereo textured mesh_Material0_0"
    },
    {
      "mesh": 4,
      "name": "Stereo textured mesh_Material0_0"
    },
    {
      "mesh": 5,
      "name": "Stereo textured mesh_Material0_0"
    },
    {
      "mesh": 6,
      "name": "Stereo textured mesh_Material0_0"
    },
    {
      "mesh": 7,
      "name": "Stereo textured mesh_Material0_0"
    },
    {
      "mesh": 8,
      "name": "Stereo textured mesh_Material0_0"
    },
    {
      "mesh": 9,
      "name": "Stereo textured mesh_Material0_0"
    }
  ],
  "samplers": [
    {
      "magFilter": 9729,
      "minFilter": 9987,
      "wrapS": 10497,
      "wrapT": 10497
    }
  ],
  "scene": 0,
  "scenes": [
    {
      "name": "Sketchfab_Scene",
      "nodes": [
        0
      ]
    }
  ],
  "textures": [
    {
      "sampler": 0,
      "source": 0
    }
  ]
}
