{
  "accessors": [
    {
      "bufferView": 0,
      "componentType": 5125,
      "count": 12768,
      "type": "SCALAR"
    },
    {
      "bufferView": 1,
      "componentType": 5126,
      "count": 2695,
      "max": [
        1.09452056884766,
        0.725526213645935,
        0.759243845939636
      ],
      "min": [
        -1.12550354003906,
        0.0932378172874451,
        -0.759243845939636
      ],
      "type": "VEC3"
    },
    {
      "bufferView": 2,
      "componentType": 5126,
      "count": 2695,
      "type": "VEC3"
    },
    {
      "bufferView": 3,
      "componentType": 5126,
      "count": 2695,
      "type": "VEC2"
    },
    {
      "bufferView": 4,
      "componentType": 5125,
      "count": 1728,
      "type": "SCALAR"
    },
    {
      "bufferView": 5,
      "componentType": 5126,
      "count": 337,
      "max": [
        -0.939499020576477,
        0.17808586359024,
        0.182049840688705
      ],
      "min": [
        -3.05831146240234,
        0.0396162271499634,
        -0.182049840688705
      ],
      "type": "VEC3"
    },
    {
      "bufferView": 6,
      "componentType": 5126,
      "count": 337,
      "type": "VEC3"
    },
    {
      "bufferView": 7,
      "componentType": 5126,
      "count": 337,
      "type": "VEC2"
    },
    {
      "bufferView": 8,
      "componentType": 5125,
      "count": 336,
      "type": "SCALAR"
    },
    {
      "bufferView": 9,
      "componentType": 5126,
      "count": 75,
      "max": [
        -0.840326368808746,
        0.2386414706707,
        0.399429440498352
      ],
      "min": [
        -2.08126020431519,
        0.144821658730507,
        0.0155891180038452
      ],
      "type": "VEC3"
    },
    {
      "bufferView": 10,
      "componentType": 5126,
      "count": 75,
      "type": "VEC3"
    },
    {
      "bufferView": 11,
      "componentType": 5126,
      "count": 75,
      "type": "VEC2"
    },
    {
      "bufferView": 12,
      "componentType": 5125,
      "count": 336,
      "type": "SCALAR"
    },
    {
      "bufferView": 13,
      "componentType": 5126,
      "count": 75,
      "max": [
        -0.852823197841644,
        0.2386414706707,
        0.00951695442199707
      ],
      "min": [
        -2.08813261985779,
        0.141955226659775,
        -0.395593404769897
      ],
      "type": "VEC3"
    },
    {
      "bufferView": 14,
      "componentType": 5126,
      "count": 75,
      "type": "VEC3"
    },
    {
      "bufferView": 15,
      "componentType": 5126,
      "count": 75,
      "type": "VEC2"
    },
    {
      "bufferView": 16,
      "componentType": 5125,
      "count": 4074,
      "type": "SCALAR"
    },
    {
      "bufferView": 17,
      "componentType": 5126,
      "count": 778,
      "max": [
        -1.81583964824677,
        0.231117993593216,
        0.18879060447216
      ],
      "min": [
        -2.27090930938721,
        -0.0439192950725555,
        -0.184295132756233
      ],
      "type": "VEC3"
    },
    {
      "bufferView": 18,
      "componentType": 5126,
      "count": 778,
      "type": "VEC3"
    },
    {
      "bufferView": 19,
      "componentType": 5126,
      "count": 778,
      "type": "VEC2"
    }
  ],
  "asset": {
    "generator": "Adobe Substance 3D Painter 7.4.2",
    "version": "2.0"
  },
  "bufferViews": [
    {
      "buffer": 0,
      "byteLength": 51072,
      "target": 34963
    },
    {
      "buffer": 0,
      "byteLength": 32340,
      "byteOffset": 51072,
      "target": 34962
    },
    {
      "buffer": 0,
      "byteLength": 32340,
      "byteOffset": 83412,
      "target": 34962
    },
    {
      "buffer": 0,
      "byteLength": 21560,
      "byteOffset": 115752,
      "target": 34962
    },
    {
      "buffer": 0,
      "byteLength": 6912,
      "byteOffset": 137312,
      "target": 34963
    },
    {
      "buffer": 0,
      "byteLength": 4044,
      "byteOffset": 144224,
      "target": 34962
    },
    {
      "buffer": 0,
      "byteLength": 4044,
      "byteOffset": 148268,
      "target": 34962
    },
    {
      "buffer": 0,
      "byteLength": 2696,
      "byteOffset": 152312,
      "target": 34962
    },
    {
      "buffer": 0,
      "byteLength": 1344,
      "byteOffset": 155008,
      "target": 34963
    },
    {
      "buffer": 0,
      "byteLength": 900,
      "byteOffset": 156352,
      "target": 34962
    },
    {
      "buffer": 0,
      "byteLength": 900,
      "byteOffset": 157252,
      "target": 34962
    },
    {
      "buffer": 0,
      "byteLength": 600,
      "byteOffset": 158152,
      "target": 34962
    },
    {
      "buffer": 0,
      "byteLength": 1344,
      "byteOffset": 158752,
      "target": 34963
    },
    {
      "buffer": 0,
      "byteLength": 900,
      "byteOffset": 160096,
      "target": 34962
    },
    {
      "buffer": 0,
      "byteLength": 900,
      "byteOffset": 160996,
      "target": 34962
    },
    {
      "buffer": 0,
      "byteLength": 600,
      "byteOffset": 161896,
      "target": 34962
    },
    {
      "buffer": 0,
      "byteLength": 16296,
      "byteOffset": 162496,
      "target": 34963
    },
    {
      "buffer": 0,
      "byteLength": 9336,
      "byteOffset": 178792,
      "target": 34962
    },
    {
      "buffer": 0,
      "byteLength": 9336,
      "byteOffset": 188128,
      "target": 34962
    },
    {
      "buffer": 0,
      "byteLength": 6224,
      "byteOffset": 197464,
      "target": 34962
    }
  ],
  "buffers": [
    {
      "byteLength": 203688,
      "uri": "turtle_rattle.bin"
    }
  ],
  "images": [
    {
      "uri": "blinn1_baseColor.png"
    },
    {
      "uri": "blinn1_occlusionRoughnessMetallic.png"
    },
    {
      "uri": "blinn1_normal.png"
    },
    {
      "uri": "blinn2_baseColor.png"
    },
    {
      "uri": "blinn2_occlusionRoughnessMetallic.png"
    },
    {
      "uri": "blinn2_normal.png"
    },
    {
      "uri": "blinn3_baseColor.png"
    },
    {
      "uri": "blinn3_occlusionRoughnessMetallic.png"
    },
    {
      "uri": "blinn3_normal.png"
    },
    {
      "uri": "blinn4_baseColor.png"
    },
    {
      "uri": "blinn4_occlusionRoughnessMetallic.png"
    },
    {
      "uri": "blinn4_normal.png"
    },
    {
      "uri": "blinn5_baseColor.png"
    },
    {
      "uri": "blinn5_occlusionRoughnessMetallic.png"
    },
    {
      "uri": "blinn5_normal.png"
    }
  ],
  "materials": [
    {
      "alphaMode": "OPAQUE",
      "name": "blinn1",
      "normalTexture": {
        "index": 2
      },
      "occlusionTexture": {
        "index": 1
      },
      "pbrMetallicRoughness": {
        "baseColorTexture": {
          "index": 0
        },
        "metallicRoughnessTexture": {
          "index": 1
        }
      }
    },
    {
      "alphaMode": "OPAQUE",
      "name": "blinn2",
      "normalTexture": {
        "index": 5
      },
      "occlusionTexture": {
        "index": 4
      },
      "pbrMetallicRoughness": {
        "baseColorTexture": {
          "index": 3
        },
        "metallicRoughnessTexture": {
          "index": 4
        }
      }
    },
    {
      "alphaMode": "OPAQUE",
      "name": "blinn3",
      "normalTexture": {
        "index": 8
      },
      "occlusionTexture": {
        "index": 7
      },
      "pbrMetallicRoughness": {
        "baseColorTexture": {
          "index": 6
        },
        "metallicRoughnessTexture": {
          "index": 7
        }
      }
    },
    {
      "alphaMode": "OPAQUE",
      "name": "blinn4",
      "normalTexture": {
        "index": 11
      },
      "occlusionTexture": {
        "index": 10
      },
      "pbrMetallicRoughness": {
        "baseColorTexture": {
          "index": 9
        },
        "metallicRoughnessTexture": {
          "index": 10
        }
      }
    },
    {
      "alphaMode": "OPAQUE",
      "name": "blinn5",
      "normalTexture": {
        "index": 14
      },
      "occlusionTexture": {
        "index": 13
      },
      "pbrMetallicRoughness": {
        "baseColorTexture": {
          "index": 12
        },
        "metallicRoughnessTexture": {
          "index": 13
        }
      }
    }
  ],
  "meshes": [
    {
      "name": "pCube1",
      "primitives": [
        {
          "attributes": {
            "NORMAL": 2,
            "POSITION": 1,
            "TEXCOORD_0": 3
          },
          "indices": 0,
          "material": 0,
          "mode": 4
        }
      ]
    },
    {
      "name": "turtle_rattle_1:pCylinder1",
      "primitives": [
        {
          "attributes": {
            "NORMAL": 6,
            "POSITION": 5,
            "TEXCOORD_0": 7
          },
          "indices": 4,
          "material": 3,
          "mode": 4
        }
      ]
    },
    {
      "name": "pPlane1",
      "primitives": [
        {
          "attributes": {
            "NORMAL": 10,
            "POSITION": 9,
            "TEXCOORD_0": 11
          },
          "indices": 8,
          "material": 2,
          "mode": 4
        }
      ]
    },
    {
      "name": "pPlane2",
      "primitives": [
        {
          "attributes": {
            "NORMAL": 14,
            "POSITION": 13,
            "TEXCOORD_0": 15
          },
          "indices": 12,
          "material": 1,
          "mode": 4
        }
      ]
    },
    {
      "name": "pTorus1",
      "primitives": [
        {
          "attributes": {
            "NORMAL": 18,
            "POSITION": 17,
            "TEXCOORD_0": 19
          },
          "indices": 16,
          "material": 4,
          "mode": 4
        }
      ]
    }
  ],
  "nodes": [
    {
      "children": [
        1,
        3,
        5,
        7,
        9
      ],
      "name": "RootNode"
    },
    {
      "children": [
        2
      ],
      "name": "pCube1"
    },
    {
      "mesh": 0,
      "name": "pCube1"
    },
    {
      "children": [
        4
      ],
      "name": "turtle_rattle_1:pCylinder1"
    },
    {
      "mesh": 1,
      "name": "turtle_rattle_1:pCylinder1"
    },
    {
      "children": [
        6
      ],
      "name": "pPlane1"
    },
    {
      "mesh": 2,
      "name": "pPlane1"
    },
    {
      "children": [
        8
      ],
      "name": "pPlane2"
    },
    {
      "mesh": 3,
      "name": "pPlane2"
    },
    {
      "children": [
        10
      ],
      "name": "pTorus1"
    },
    {
      "mesh": 4,
      "name": "pTorus1"
    }
  ],
  "samplers": [
    {
      "magFilter": 9729,
      "minFilter": 9985,
      "wrapS": 10497,
      "wrapT": 10497
    }
  ],
  "scene": 0,
  "scenes": [
    {
      "name": "Scene",
      "nodes": [
        0
      ]
    }
  ],
  "textures": [
    {
      "sampler": 0,
      "source": 0
    },
    {
      "sampler": 0,
      "source": 1
    },
    {
      "sampler": 0,
      "source": 2
    },
    {
      "sampler": 0,
      "source": 3
    },
    {
      "sampler": 0,
      "source": 4
    },
    {
      "sampler": 0,
      "source": 5
    },
    {
      "sampler": 0,
      "source": 6
    },
    {
      "sampler": 0,
      "source": 7
    },
    {
      "sampler": 0,
      "source": 8
    },
    {
      "sampler": 0,
      "source": 9
    },
    {
      "sampler": 0,
      "source": 10
    },
    {
      "sampler": 0,
      "source": 11
    },
    {
      "sampler": 0,
      "source": 12
    },
    {
      "sampler": 0,
      "source": 13
    },
    {
      "sampler": 0,
      "source": 14
    }
  ]
}