{
  "accessors": [
    {
      "bufferView": 2,
      "componentType": 5126,
      "count": 2340,
      "max": [
        0.431479811668396,
        1.6377699375152588,
        3.4140937328338623
      ],
      "min": [
        -0.431479811668396,
        -1.67328941822052,
        0.1854383945465088
      ],
      "type": "VEC3"
    },
    {
      "bufferView": 2,
      "byteOffset": 28080,
      "componentType": 5126,
      "count": 2340,
      "max": [
        0.9993135929107666,
        0.9987816214561462,
        0.9999750256538391
      ],
      "min": [
        -0.9993135929107666,
        -0.9985636472702026,
        -0.9999857544898987
      ],
      "type": "VEC3"
    },
    {
      "bufferView": 3,
      "componentType": 5126,
      "count": 2340,
      "max": [
        0.8627451062202454,
        0.8274509906768799,
        0.7647058963775635,
        1.0
      ],
      "min": [
        0.250980406999588,
        0.20392157137393951,
        0.16862745583057404,
        1.0
      ],
      "type": "VEC4"
    },
    {
      "bufferView": 1,
      "componentType": 5126,
      "count": 2340,
      "max": [
        0.7500000596046448,
        0.875
      ],
      "min": [
        0.2499999850988388,
        0.375
      ],
      "type": "VEC2"
    },
    {
      "bufferView": 0,
      "componentType": 5125,
      "count": 3504,
      "type": "SCALAR"
    },
    {
      "bufferView": 2,
      "byteOffset": 56160,
      "componentType": 5126,
      "count": 468,
      "max": [
        0.33724549412727356,
        1.3395551443099976,
        3.7225277423858643
      ],
      "min": [
        -0.33724549412727356,
        -1.190846562385559,
        0.09206074476242065
      ],
      "type": "VEC3"
    },
    {
      "bufferView": 2,
      "byteOffset": 61776,
      "componentType": 5126,
      "count": 468,
      "max": [
        0.9966698288917542,
        0.9903875589370728,
        0.8581154942512512
      ],
      "min": [
        -0.9966698288917542,
        -0.9444458484649658,
        -1.0
      ],
      "type": "VEC3"
    },
    {
      "bufferView": 3,
      "byteOffset": 37440,
      "componentType": 5126,
      "count": 468,
      "max": [
        0.7960784435272217,
        0.6705882549285889,
        0.5411764979362488,
        1.0
      ],
      "min": [
        0.250980406999588,
        0.20392157137393951,
        0.16862745583057404,
        1.0
      ],
      "type": "VEC4"
    },
    {
      "bufferView": 1,
      "byteOffset": 18720,
      "componentType": 5126,
      "count": 468,
      "max": [
        0.5000000596046448,
        0.8125001192092896
      ],
      "min": [
        0.3125,
        0.4300363063812256
      ],
      "type": "VEC2"
    },
    {
      "bufferView": 0,
      "byteOffset": 14016,
      "componentType": 5125,
      "count": 708,
      "type": "SCALAR"
    },
    {
      "bufferView": 2,
      "byteOffset": 67392,
      "componentType": 5126,
      "count": 65532,
      "max": [
        0.4193037152290344,
        1.6084048748016357,
        3.4217453002929688
      ],
      "min": [
        -0.4193509817123413,
        -1.6141358613967896,
        0.9202008247375488
      ],
      "type": "VEC3"
    },
    {
      "bufferView": 2,
      "byteOffset": 853776,
      "componentType": 5126,
      "count": 65532,
      "max": [
        0.9999971389770508,
        0.9999799728393555,
        0.9999758005142212
      ],
      "min": [
        -0.9999794960021973,
        -0.9995954036712646,
        -0.9998165369033813
      ],
      "type": "VEC3"
    },
    {
      "bufferView": 3,
      "byteOffset": 44928,
      "componentType": 5126,
      "count": 65532,
      "max": [
        0.886274516582489,
        0.8784313797950745,
        0.8274509906768799,
        1.0
      ],
      "min": [
        0.24313725531101227,
        0.19607843458652496,
        0.16470588743686676,
        1.0
      ],
      "type": "VEC4"
    },
    {
      "bufferView": 1,
      "byteOffset": 22464,
      "componentType": 5126,
      "count": 65532,
      "max": [
        0.0,
        0.0
      ],
      "min": [
        0.0,
        0.0
      ],
      "type": "VEC2"
    },
    {
      "bufferView": 0,
      "byteOffset": 16848,
      "componentType": 5125,
      "count": 354003,
      "type": "SCALAR"
    },
    {
      "bufferView": 2,
      "byteOffset": 1640160,
      "componentType": 5126,
      "count": 65532,
      "max": [
        0.3940936028957367,
        1.4976574182510376,
        3.412125825881958
      ],
      "min": [
        -0.39416739344596863,
        -1.6735122203826904,
        0.08943954855203629
      ],
      "type": "VEC3"
    },
    {
      "bufferView": 2,
      "byteOffset": 2426544,
      "componentType": 5126,
      "count": 65532,
      "max": [
        0.9999876022338867,
        0.9999949932098389,
        0.9992629289627075
      ],
      "min": [
        -0.999996542930603,
        -0.9999160766601563,
        -0.9999994039535522
      ],
      "type": "VEC3"
    },
    {
      "bufferView": 3,
      "byteOffset": 1093440,
      "componentType": 5126,
      "count": 65532,
      "max": [
        0.886274516582489,
        0.8901960849761963,
        0.843137264251709,
        1.0
      ],
      "min": [
        0.23529411852359772,
        0.1882352977991104,
        0.1568627506494522,
        1.0
      ],
      "type": "VEC4"
    },
    {
      "bufferView": 1,
      "byteOffset": 546720,
      "componentType": 5126,
      "count": 65532,
      "max": [
        0.0,
        0.0
      ],
      "min": [
        0.0,
        0.0
      ],
      "type": "VEC2"
    },
    {
      "bufferView": 0,
      "byteOffset": 1432860,
      "componentType": 5125,
      "count": 340437,
      "type": "SCALAR"
    },
    {
      "bufferView": 2,
      "byteOffset": 3212928,
      "componentType": 5126,
      "count": 48907,
      "max": [
        0.4193037152290344,
        1.6247494220733643,
        3.706845283508301
      ],
      "min": [
        -0.41889089345932007,
        -1.6735122203826904,
        0.08953031152486801
      ],
      "type": "VEC3"
    },
    {
      "bufferView": 2,
      "byteOffset": 3799812,
      "componentType": 5126,
      "count": 48907,
      "max": [
        0.9999938011169434,
        0.9999834299087524,
        0.9999758005142212
      ],
      "min": [
        -0.9999990463256836,
        -0.9999128580093384,
        -0.99998939037323
      ],
      "type": "VEC3"
    },
    {
      "bufferView": 3,
      "byteOffset": 2141952,
      "componentType": 5126,
      "count": 48907,
      "max": [
        0.886274516582489,
        0.8901960849761963,
        0.843137264251709,
        1.0
      ],
      "min": [
        0.23529411852359772,
        0.1882352977991104,
        0.1568627506494522,
        1.0
      ],
      "type": "VEC4"
    },
    {
      "bufferView": 1,
      "byteOffset": 1070976,
      "componentType": 5126,
      "count": 48907,
      "max": [
        0.75,
        0.7500000596046448
      ],
      "min": [
        0.0,
        0.0
      ],
      "type": "VEC2"
    },
    {
      "bufferView": 0,
      "byteOffset": 2794608,
      "componentType": 5125,
      "count": 203151,
      "type": "SCALAR"
    },
    {
      "bufferView": 2,
      "byteOffset": 4386696,
      "componentType": 5126,
      "count": 17558,
      "max": [
        0.3463350832462311,
        1.332837462425232,
        3.706578254699707
      ],
      "min": [
        -0.3465055525302887,
        -1.1829004287719727,
        0.09133238345384598
      ],
      "type": "VEC3"
    },
    {
      "bufferView": 2,
      "byteOffset": 4597392,
      "componentType": 5126,
      "count": 17558,
      "max": [
        0.9997403621673584,
        0.9999251365661621,
        0.9994127750396729
      ],
      "min": [
        -0.9999287128448486,
        -0.9998998641967773,
        -0.999996542930603
      ],
      "type": "VEC3"
    },
    {
      "bufferView": 3,
      "byteOffset": 2924464,
      "componentType": 5126,
      "count": 17558,
      "max": [
        0.800000011920929,
        0.6705882549285889,
        0.5411764979362488,
        1.0
      ],
      "min": [
        0.24313725531101227,
        0.19607843458652496,
        0.16470588743686676,
        1.0
      ],
      "type": "VEC4"
    },
    {
      "bufferView": 1,
      "byteOffset": 1462232,
      "componentType": 5126,
      "count": 17558,
      "max": [
        0.5,
        0.7500001192092896
      ],
      "min": [
        0.0,
        0.0
      ],
      "type": "VEC2"
    },
    {
      "bufferView": 0,
      "byteOffset": 3607212,
      "componentType": 5125,
      "count": 100785,
      "type": "SCALAR"
    },
    {
      "bufferView": 2,
      "byteOffset": 4808088,
      "componentType": 5126,
      "count": 1118,
      "max": [
        0.15389543771743774,
        -1.239504098892212,
        3.2745168209075928
      ],
      "min": [
        -0.15389543771743774,
        -1.319805383682251,
        3.194215774536133
      ],
      "type": "VEC3"
    },
    {
      "bufferView": 2,
      "byteOffset": 4821504,
      "componentType": 5126,
      "count": 1118,
      "max": [
        1.0,
        1.0,
        1.0
      ],
      "min": [
        -1.0,
        -1.0,
        -1.0
      ],
      "type": "VEC3"
    },
    {
      "bufferView": 3,
      "byteOffset": 3205392,
      "componentType": 5126,
      "count": 1118,
      "max": [
        0.7137255072593689,
        0.7137255072593689,
        0.7137255072593689,
        1.0
      ],
      "min": [
        0.09019608050584793,
        0.07450980693101883,
        0.062745101749897,
        1.0
      ],
      "type": "VEC4"
    },
    {
      "bufferView": 1,
      "byteOffset": 1602696,
      "componentType": 5126,
      "count": 1118,
      "max": [
        1.000000238418579,
        1.0
      ],
      "min": [
        0.0,
        0.0
      ],
      "type": "VEC2"
    },
    {
      "bufferView": 0,
      "byteOffset": 4010352,
      "componentType": 5125,
      "count": 5760,
      "type": "SCALAR"
    }
  ],
  "asset": {
    "extras": {
      "author": "knifvis (https://sketchfab.com/knifvis)",
      "license": "CC-BY-NC-4.0 (http://creativecommons.org/licenses/by-nc/4.0/)",
      "source": "https://sketchfab.com/3d-models/deer-animal-1547a4805b414a17a883a0d3f62971c9",
      "title": "deer animal"
    },
    "generator": "Sketchfab-12.66.0",
    "version": "2.0"
  },
  "bufferViews": [
    {
      "buffer": 0,
      "byteLength": 4033392,
      "name": "floatBufferViews",
      "target": 34963
    },
    {
      "buffer": 0,
      "byteLength": 1611640,
      "byteOffset": 4033392,
      "byteStride": 8,
      "name": "floatBufferViews",
      "target": 34962
    },
    {
      "buffer": 0,
      "byteLength": 4834920,
      "byteOffset": 5645032,
      "byteStride": 12,
      "name": "floatBufferViews",
      "target": 34962
    },
    {
      "buffer": 0,
      "byteLength": 3223280,
      "byteOffset": 10479952,
      "byteStride": 16,
      "name": "floatBufferViews",
      "target": 34962
    }
  ],
  "buffers": [
    {
      "byteLength": 13703232,
      "uri": "scene.bin"
    }
  ],
  "materials": [
    {
      "doubleSided": true,
      "name": "Sphere__0",
      "pbrMetallicRoughness": {
        "metallicFactor": 0.0,
        "roughnessFactor": 0.6
      }
    },
    {
      "doubleSided": true,
      "name": "body",
      "pbrMetallicRoughness": {
        "baseColorFactor": [
          0.8,
          0.8,
          0.8,
          1.0
        ],
        "metallicFactor": 0.0,
        "roughnessFactor": 0.5
      }
    },
    {
      "doubleSided": true,
      "name": "horns-hoofs",
      "pbrMetallicRoughness": {
        "baseColorFactor": [
          0.178861,
          0.118576,
          0.111016,
          1.0
        ],
        "metallicFactor": 0.0,
        "roughnessFactor": 0.5
      }
    },
    {
      "doubleSided": true,
      "name": "body.001",
      "pbrMetallicRoughness": {
        "baseColorFactor": [
          0.8,
          0.8,
          0.8,
          1.0
        ],
        "metallicFactor": 0.0,
        "roughnessFactor": 0.8211145618000169
      }
    },
    {
      "doubleSided": true,
      "name": "horns-hoofs.001",
      "pbrMetallicRoughness": {
        "metallicFactor": 0.0,
        "roughnessFactor": 0.9707417752240468
      }
    }
  ],
  "meshes": [
    {
      "name": "Cube_body_0",
      "primitives": [
        {
          "attributes": {
            "COLOR_0": 2,
            "NORMAL": 1,
            "POSITION": 0,
            "TEXCOORD_0": 3
          },
          "indices": 4,
          "material": 1,
          "mode": 4
        }
      ]
    },
    {
      "name": "Cube_horns-hoofs_0",
      "primitives": [
        {
          "attributes": {
            "COLOR_0": 7,
            "NORMAL": 6,
            "POSITION": 5,
            "TEXCOORD_0": 8
          },
          "indices": 9,
          "material": 2,
          "mode": 4
        }
      ]
    },
    {
      "name": "Cube.001_body.001_0",
      "primitives": [
        {
          "attributes": {
            "COLOR_0": 12,
            "NORMAL": 11,
            "POSITION": 10,
            "TEXCOORD_0": 13
          },
          "indices": 14,
          "material": 3,
          "mode": 4
        }
      ]
    },
    {
      "name": "Cube.001_body.001_0",
      "primitives": [
        {
          "attributes": {
            "COLOR_0": 17,
            "NORMAL": 16,
            "POSITION": 15,
            "TEXCOORD_0": 18
          },
          "indices": 19,
          "material": 3,
          "mode": 4
        }
      ]
    },
    {
      "name": "Cube.001_body.001_0",
      "primitives": [
        {
          "attributes": {
            "COLOR_0": 22,
            "NORMAL": 21,
            "POSITION": 20,
            "TEXCOORD_0": 23
          },
          "indices": 24,
          "material": 3,
          "mode": 4
        }
      ]
    },
    {
      "name": "Cube.001_horns-hoofs.001_0",
      "primitives": [
        {
          "attributes": {
            "COLOR_0": 27,
            "NORMAL": 26,
            "POSITION": 25,
            "TEXCOORD_0": 28
          },
          "indices": 29,
          "material": 4,
          "mode": 4
        }
      ]
    },
    {
      "name": "Sphere__0",
      "primitives": [
        {
          "attributes": {
            "COLOR_0": 32,
            "NORMAL": 31,
            "POSITION": 30,
            "TEXCOORD_0": 33
          },
          "indices": 34,
          "material": 0,
          "mode": 4
        }
      ]
    }
  ],
  "nodes": [
    {
      "children": [
        1
      ],
      "matrix": [
        1.0,
        0.0,
        0.0,
        0.0,
        0.0,
        2.220446049250313e-16,
        -1.0,
        0.0,
        0.0,
        1.0,
        2.220446049250313e-16,
        0.0,
        0.0,
        0.0,
        0.0,
        1.0
      ],
      "name": "Sketchfab_model"
    },
    {
      "children": [
        2
      ],
      "matrix": [
        0.009999999776482582,
        0.0,
        0.0,
        0.0,
        0.0,
        0.0,
        0.009999999776482582,
        0.0,
        0.0,
        -0.009999999776482582,
        0.0,
        0.0,
        0.0,
        0.0,
        0.0,
        1.0
      ],
      "name": "2804fd6f211749e6a5c49f0536f46dd8.fbx"
    },
    {
      "children": [
        3,
        6,
        11
      ],
      "name": "RootNode"
    },
    {
      "children": [
        4,
        5
      ],
      "matrix": [
        100.0,
        0.0,
        0.0,
        0.0,
        -0.0,
        -1.629206793918314e-05,
        -99.99999999999868,
        0.0,
        0.0,
        99.99999999999868,
        -1.629206793918314e-05,
        0.0,
        -105.26820373535156,
        0.0,
        0.0,
        1.0
      ],
      "name": "Cube"
    },
    {
      "mesh": 0,
      "name": "Cube_body_0"
    },
    {
      "mesh": 1,
      "name": "Cube_horns-hoofs_0"
    },
    {
      "children": [
        7,
        8,
        9,
        10
      ],
      "matrix": [
        100.0,
        0.0,
        0.0,
        0.0,
        0.0,
        -1.629206793918314e-05,
        -99.99999999999868,
        0.0,
        0.0,
        99.99999999999868,
        -1.629206793918314e-05,
        0.0,
        98.61333465576172,
        0.0,
        0.0,
        1.0
      ],
      "name": "Cube.001"
    },
    {
      "mesh": 2,
      "name": "Cube.001_body.001_0"
    },
    {
      "mesh": 3,
      "name": "Cube.001_body.001_0"
    },
    {
      "mesh": 4,
      "name": "Cube.001_body.001_0"
    },
    {
      "mesh": 5,
      "name": "Cube.001_horns-hoofs.001_0"
    },
    {
      "children": [
        12
      ],
      "matrix": [
        100.0,
        0.0,
        0.0,
        0.0,
        0.0,
        -1.629206793918314e-05,
        -99.99999999999868,
        0.0,
        0.0,
        99.99999999999868,
        -1.629206793918314e-05,
        0.0,
        98.61333465576172,
        0.0,
        0.0,
        1.0
      ],
      "name": "Sphere"
    },
    {
      "mesh": 6,
      "name": "Sphere__0"
    }
  ],
  "scene": 0,
  "scenes": [
    {
      "name": "Sketchfab_Scene",
      "nodes": [
        0
      ]
    }
  ]
}
